<svg width="27" height="28" viewBox="0 0 27 28" fill="none" xmlns="http://www.w3.org/2000/svg">
<path d="M25.7344 6.85938C26.2969 8.82812 26.2969 13.0469 26.2969 13.0469C26.2969 13.0469 26.2969 17.2188 25.7344 19.2344C25.4531 20.3594 24.5625 21.2031 23.4844 21.4844C21.4688 22 13.5 22 13.5 22C13.5 22 5.48438 22 3.46875 21.4844C2.39062 21.2031 1.5 20.3594 1.21875 19.2344C0.65625 17.2188 0.65625 13.0469 0.65625 13.0469C0.65625 13.0469 0.65625 8.82812 1.21875 6.85938C1.5 5.73438 2.39062 4.84375 3.46875 4.5625C5.48438 4 13.5 4 13.5 4C13.5 4 21.4688 4 23.4844 4.5625C24.5625 4.84375 25.4531 5.73438 25.7344 6.85938ZM10.875 16.8438L17.5312 13.0469L10.875 9.25V16.8438Z" fill="#FF0000"/>
</svg>
