<svg width="231" height="236" viewBox="0 0 231 236" fill="none" xmlns="http://www.w3.org/2000/svg">
<g clip-path="url(#clip0_26_1285)">
<g clip-path="url(#clip1_26_1285)">
<g clip-path="url(#clip2_26_1285)">
<path d="M208.198 54.4112C206.501 49.2402 204.869 44.0392 203.116 38.8952C201.57 34.3612 196.448 26.3452 199.204 21.5142C201.179 18.0392 205.728 16.8592 209.403 16.3542C214.989 15.5892 221.22 14.8442 222.919 21.5412C225.219 30.5872 227.488 39.6682 229.817 48.7312C230.029 49.5632 230.247 50.4232 230.123 51.2722C229.893 52.8922 228.515 54.0902 227.137 54.9772C224.653 56.5478 221.884 57.6134 218.987 58.1131C216.091 58.6128 213.125 58.5367 210.258 57.8892C209.539 57.7232 208.788 57.4962 208.302 56.9452C207.815 56.3952 207.734 55.4212 208.324 54.9692" fill="#222B3D"/>
<path d="M208.292 54.388C206.924 50.12 205.593 45.841 204.193 41.583C203.178 38.479 201.881 35.56 200.629 32.552C199.443 29.704 198.088 26.306 198.799 23.167C199.602 19.641 203.323 17.909 206.514 17.124C209.418 16.3815 212.409 16.0383 215.405 16.104C218.529 16.218 221.265 17.492 222.401 20.577C223.142 22.577 223.52 24.763 224.043 26.83L225.732 33.498C226.859 37.9537 227.991 42.408 229.128 46.861C229.442 48.076 229.908 49.352 229.948 50.617C229.992 52.099 229.056 53.247 227.95 54.121C226.192 55.509 224.038 56.492 221.914 57.164C219.718 57.8591 217.428 58.2122 215.125 58.211C213.985 58.208 212.846 58.1171 211.72 57.939C210.695 57.779 206.645 56.983 208.472 55.102C208.655 54.914 208.369 54.628 208.186 54.815C207.173 55.847 207.959 57.195 209.095 57.715C210.799 58.497 213.073 58.603 214.92 58.623C219.28 58.682 223.564 57.4692 227.246 55.133C228.647 54.23 230.096 53.005 230.338 51.254C230.484 50.217 230.155 49.172 229.904 48.179L228.861 44.129C227.505 38.8031 226.158 33.4747 224.821 28.144C224.191 25.654 223.72 23.046 222.875 20.621C222.454 19.3012 221.658 18.132 220.586 17.255C218.146 15.351 214.723 15.526 211.821 15.828C208.445 16.188 204.825 16.643 201.893 18.49C199.021 20.3 197.836 23.128 198.312 26.444C198.898 30.534 201.061 34.177 202.575 37.96C204.721 43.32 206.279 48.965 208.104 54.437C208.144 54.556 208.329 54.508 208.292 54.388ZM186.018 55.95C187.107 53.885 186.964 51.413 186.734 49.091C186.68 48.2193 186.521 47.3573 186.263 46.523C185.998 45.6834 185.457 44.9583 184.727 44.466C184.538 44.3352 184.325 44.2446 184.1 44.1998C183.874 44.1551 183.642 44.1572 183.418 44.206C182.642 44.434 182.294 45.394 181.546 45.688C181.121 45.861 180.644 45.792 180.187 45.804C179.303 45.829 178.357 46.256 178.027 47.076C177.912 47.4045 177.858 47.7511 177.866 48.099C177.841 50.3626 178.599 52.5652 180.012 54.334" fill="#D1D7FF"/>
<path d="M186.302 56.1151C187.804 53.6211 187.616 50.4081 187.147 47.6321C186.846 45.8291 185.063 42.3771 182.719 43.8861C182.284 44.1671 182.032 44.6561 181.615 44.9401C180.995 45.3651 180.217 45.1451 179.528 45.2881C178.491 45.5031 177.59 46.1951 177.34 47.2641C176.752 49.7761 178.081 52.8301 179.649 54.7201C180.017 55.1641 180.798 54.5721 180.457 54.0951C179.197 52.3391 178.395 50.3121 178.481 48.1181C178.54 46.5651 179.669 46.5011 180.882 46.4341C181.523 46.4128 182.133 46.1482 182.586 45.6941C182.833 45.4461 183.114 44.9771 183.452 44.8491C184.342 44.5201 185.105 45.5061 185.448 46.1401C185.999 47.1581 186.078 48.3781 186.189 49.5061C186.409 51.6501 186.485 53.8181 185.695 55.8661C185.559 56.2191 186.107 56.4241 186.292 56.1131L186.302 56.1151Z" fill="#4B5662"/>
<path d="M120.028 78.819C117.942 77.774 116.62 75.679 115.457 73.657C114.993 72.9182 114.619 72.1257 114.346 71.297C114.071 70.4597 114.089 69.5535 114.398 68.728C114.554 68.291 114.885 67.938 115.312 67.755C116.075 67.491 116.917 68.069 117.702 67.879C118.147 67.772 118.495 67.439 118.875 67.184C119.616 66.691 120.624 66.488 121.372 66.962C121.657 67.163 121.903 67.414 122.098 67.703C123.436 69.5293 124.101 71.7623 123.98 74.023" fill="#D1D7FF"/>
<path d="M120.198 78.538C118.507 77.421 117.361 75.772 116.358 74.043C115.395 72.386 113.098 67.945 116.864 68.476C118.781 68.746 120.25 66.081 121.804 68.331C122.981 70.032 123.47 71.969 123.468 74.011C123.468 74.681 124.456 74.665 124.498 74.011C124.668 71.578 123.93 68.459 122.078 66.733C121.302 66.012 120.211 65.935 119.255 66.306C118.497 66.6 117.946 67.294 117.101 67.266C116.548 67.252 116.044 67.019 115.484 67.096C112.614 67.518 113.654 71.541 114.518 73.186C115.753 75.53 117.346 78.006 119.865 79.093C119.939 79.1275 120.024 79.133 120.102 79.1085C120.18 79.0839 120.246 79.0311 120.287 78.9603C120.328 78.8895 120.341 78.8059 120.324 78.7259C120.306 78.6459 120.26 78.5753 120.193 78.528L120.198 78.538Z" fill="#4B5662"/>
<path d="M111.962 76.6669C126.982 71.3229 142.449 65.6429 157.556 60.5429L165.886 57.7399C175.858 54.3769 195.521 47.2319 205.525 43.9699C206.466 43.6639 207.486 43.2979 207.995 42.4539C208.504 41.6089 208.072 40.1909 207.084 40.1909C206.865 40.2027 206.649 40.2497 206.444 40.3299C198.119 43.0459 180.108 49.5269 171.783 52.2359C154.358 57.9159 137.105 64.0129 119.764 69.9379C116.089 71.1919 112.239 72.1229 108.91 74.1359C108.517 75.5489 110.122 77.0699 111.513 76.6059" fill="#4B5662"/>
<path d="M112.014 76.8579C128.622 71.0759 145.142 65.0609 161.809 59.4419C173.977 55.3399 186.046 50.9639 198.184 46.7809C200.71 45.9109 203.249 45.0769 205.78 44.2199C206.842 43.8589 208.156 43.3529 208.497 42.1599C208.721 41.3719 208.452 40.3469 207.677 39.9649C206.778 39.5219 205.397 40.2879 204.528 40.5789C203.323 40.9789 202.118 41.3889 200.915 41.7989C198.017 42.7869 195.123 43.7889 192.232 44.8049C178.975 49.4249 165.624 53.7889 152.328 58.3329C143.892 61.2079 135.471 64.1339 127.042 67.0359C122.95 68.4439 118.838 69.7819 114.738 71.1659C112.996 71.7241 111.303 72.4244 109.676 73.2599C109.118 73.5529 108.609 73.6719 108.51 74.3169C108.45 74.8759 108.601 75.4369 108.935 75.8899C109.22 76.3233 109.633 76.6576 110.116 76.8469C110.599 77.0362 111.128 77.0711 111.632 76.9469C112.103 76.8359 111.903 76.1089 111.432 76.2179C110.533 76.4279 108.574 75.3359 109.49 74.2199C109.984 73.6229 111.449 73.2199 112.153 72.9259C113.933 72.1859 115.78 71.6119 117.62 71.0269C121.386 69.8289 125.116 68.4979 128.852 67.2089C136.592 64.5419 144.324 61.8589 152.066 59.2169C164.39 55.0189 176.762 50.9789 189.056 46.6819C194.23 44.8719 199.396 43.0489 204.592 41.3079C205.101 41.1399 205.607 40.9619 206.118 40.8019C206.365 40.7249 206.859 40.4679 207.106 40.5369C207.395 40.6209 207.81 41.1649 207.862 41.4389C207.91 41.8159 207.796 42.1969 207.548 42.4859C206.756 43.5329 204.931 43.8119 203.73 44.2149C201.296 45.0277 198.867 45.8564 196.443 46.7009C185.376 50.5389 174.364 54.5349 163.268 58.2809C147.938 63.4562 132.68 68.8434 117.499 74.4409L111.913 76.4799C111.678 76.5639 111.777 76.9419 112.019 76.8579H112.014Z" fill="#D1D7FF"/>
<path d="M120.322 65.8899C120.6 65.5833 120.977 65.3851 121.387 65.3305C121.798 65.276 122.214 65.3686 122.562 65.5919C123.118 65.9719 123.395 66.6389 123.602 67.2789C123.755 67.7529 123.888 68.2319 124.002 68.7159C124.105 69.0719 124.138 69.4439 124.098 69.8129C124.055 70.1869 123.82 70.5129 123.479 70.6719C122.901 70.8989 122.296 70.4249 121.893 69.9529C121.505 69.4999 121.158 69.0129 120.856 68.4989C121.293 69.1609 121.745 69.8668 121.77 70.6588C121.794 71.4518 121.204 72.3219 120.411 72.2819C119.762 72.2499 119.293 71.6619 118.942 71.1119C118.672 70.6869 118.42 70.2519 118.186 69.8079C118.408 70.5139 118.821 71.1659 118.907 71.9019C118.994 72.6379 118.571 73.5239 117.833 73.5659C117.307 73.5959 116.865 73.2009 116.512 72.8109C116.031 72.2801 115.591 71.7127 115.198 71.1139C114.844 70.6149 114.592 70.0507 114.457 69.4539C114.392 69.1548 114.397 68.8449 114.47 68.5479C114.544 68.2509 114.685 67.9748 114.882 67.7409C115.302 67.2939 116.057 67.1579 116.541 67.5279C116.435 67.0702 116.502 66.5893 116.731 66.1786C116.959 65.7679 117.331 65.4565 117.776 65.3049C118.23 65.1781 118.712 65.2049 119.149 65.381C119.586 65.5572 119.952 65.8729 120.191 66.2789" fill="#D1D7FF"/>
<path d="M114.766 69.5398C114.87 68.9188 115.035 67.2369 116.295 67.9379C116.377 67.9772 116.469 67.993 116.559 67.9835C116.65 67.974 116.736 67.9396 116.808 67.884C116.88 67.8285 116.935 67.754 116.968 67.6688C117 67.5837 117.008 67.4913 116.991 67.4018C116.648 65.5078 118.831 65.3719 119.708 66.5499C120.118 67.1009 121.039 66.6068 120.651 65.9998C119.189 63.6978 115.551 64.8558 116.08 67.6538L116.776 67.1208C115.196 66.2558 113.445 67.8888 114.139 69.5408C114.245 69.7878 114.709 69.9008 114.768 69.5408L114.766 69.5398Z" fill="#4B5662"/>
<path d="M120.555 66.123C122.167 64.858 123.012 66.908 123.355 68.12C123.533 68.753 124.205 70.375 122.491 69.898C122.019 69.765 121.525 68.678 121.256 68.258L120.446 68.738C120.736 69.135 120.976 69.566 121.16 70.022C121.338 70.55 121.375 72.227 120.068 71.664C119.419 71.385 118.94 70.155 118.619 69.555C118.357 69.061 117.517 69.4 117.707 69.94C117.931 70.45 118.126 70.97 118.293 71.501C118.362 71.801 118.465 72.242 118.293 72.526C118.046 72.966 117.236 72.739 116.897 72.423C116.793 72.3289 116.656 72.2785 116.516 72.2822C116.375 72.286 116.241 72.3435 116.142 72.4431C116.043 72.5426 115.986 72.6764 115.982 72.8169C115.979 72.9574 116.03 73.0939 116.124 73.198C116.892 74.05 118.152 74.551 118.984 73.487C119.932 72.274 119.11 70.901 118.665 69.674L117.757 70.059C118.384 71.205 119.527 73.472 121.214 72.573C122.97 71.633 122.081 69.491 121.276 68.259C120.942 67.748 120.13 68.214 120.453 68.738C121.036 69.678 121.96 71.287 123.266 71.185C124.516 71.086 124.691 69.758 124.501 68.772C124.281 67.599 123.926 65.93 122.854 65.216C122.423 64.9286 121.899 64.8148 121.387 64.8973C120.876 64.9798 120.414 65.2526 120.095 65.661C120.038 65.7231 120.007 65.8048 120.009 65.889C120.011 65.9732 120.045 66.0535 120.105 66.1131C120.164 66.1726 120.245 66.2069 120.329 66.2088C120.413 66.2106 120.495 66.1799 120.557 66.123H120.555Z" fill="#4B5662"/>
<path d="M125.879 76.3931L126.259 74.1701C126.447 73.0761 126.625 71.9081 126.188 70.8881C125.793 69.9671 124.936 69.3021 124 68.9391C123.049 68.6139 122.054 68.4375 121.049 68.4161C120.626 68.3911 120.142 68.3911 119.851 68.7001C119.559 69.0091 119.584 69.5351 119.777 69.9351C120.224 70.8461 121.278 71.2611 122.246 71.5721C121.827 72.3244 121.659 73.1913 121.769 74.0457C121.878 74.9 122.259 75.6968 122.854 76.3191" fill="#D1D7FF"/>
<path d="M126.237 76.4899C126.657 74.6879 127.472 72.4179 126.669 70.6099C125.928 68.9459 124.106 68.2199 122.414 67.9899C121.239 67.8279 119.137 67.5289 119.08 69.2849C119.028 70.9019 120.841 71.6779 122.103 72.0979L121.772 71.2849C121.489 71.8249 121.302 72.4099 121.219 73.0139C121.125 73.7099 122.189 74.0019 122.286 73.3099C122.338 72.7923 122.488 72.2894 122.728 71.8279C122.769 71.7544 122.794 71.6726 122.799 71.5884C122.804 71.5043 122.79 71.4201 122.758 71.342C122.727 71.2639 122.678 71.1941 122.615 71.1376C122.552 71.0811 122.478 71.0395 122.397 71.0159C121.89 70.8744 121.405 70.6641 120.955 70.3909C120.37 70.1029 120.295 69.6209 120.73 68.9439H121.053C122.041 68.6669 123.856 69.3269 124.659 69.8939C126.699 71.3419 125.751 74.2859 125.518 76.3699C125.474 76.7799 126.146 76.8639 126.237 76.4659V76.4899Z" fill="#4B5662"/>
<path d="M158.932 99.0979C154.445 99.7128 149.907 99.8636 145.389 99.5479C142.904 99.3729 140.291 98.9999 138.335 97.4559C136.431 95.9549 135.463 93.5909 134.572 91.3339L130.954 82.1889C130.079 79.9659 128.771 77.4149 126.402 77.1859C126.896 76.4889 126.343 75.4559 125.558 75.1309C124.772 74.8049 123.881 74.9729 123.049 75.1459C121.848 75.3929 120.579 75.6689 119.66 76.4719C118.742 77.2749 118.295 78.7859 119.055 79.7469C117.791 80.4869 117.776 82.2699 117.919 83.7269L118.5 89.6349C119.196 96.6999 120.125 104.307 124.943 109.518C129.141 114.072 135.587 115.882 141.768 116.381C147.949 116.88 154.193 116.279 160.354 116.983" fill="#222B3D"/>
<path d="M158.932 98.7822C154.597 99.2442 150.232 99.3321 145.882 99.0442C144.072 98.9212 142.217 98.7551 140.516 98.0712C138.614 97.3052 137.323 95.8482 136.387 94.0582C134.468 90.4081 133.206 86.3181 131.694 82.4902C130.739 80.0751 129.472 77.0572 126.568 76.6352L126.906 77.4622C127.14 76.9994 127.19 76.4649 127.045 75.9669C126.9 75.4689 126.571 75.0447 126.125 74.7802C124.943 73.9952 123.251 74.4772 121.994 74.7802C119.756 75.3332 116.894 77.4332 118.564 80.0132L118.769 79.2382C117.324 80.2262 117.208 81.9302 117.336 83.5502C117.539 86.0892 117.83 88.6302 118.077 91.1642C118.541 95.5942 119.161 100.089 120.92 104.218C122.547 108.153 125.452 111.424 129.166 113.506C132.954 115.615 137.281 116.544 141.565 116.929C147.814 117.494 154.106 116.929 160.334 117.67C161.236 117.778 161.251 116.329 160.334 116.24C151.165 115.358 141.583 117.176 132.751 113.884C128.768 112.402 125.343 109.824 123.155 106.137C121.075 102.615 120.191 98.5232 119.611 94.5152C119.275 92.1292 119.062 89.7292 118.825 87.3332C118.697 86.0172 118.536 84.7012 118.44 83.3822C118.361 82.2902 118.312 80.9122 119.319 80.2082C119.447 80.1311 119.541 80.007 119.579 79.8623C119.617 79.7175 119.597 79.5636 119.524 79.4332C118.504 77.8552 120.198 76.5091 121.559 76.0621C122.09 75.8944 122.631 75.7608 123.179 75.6622C123.844 75.5332 126.691 75.2572 125.896 76.8722C125.755 77.1592 125.846 77.6451 126.234 77.6992C128.017 77.9462 129.027 79.3992 129.78 80.9091C130.731 82.8242 131.418 84.8962 132.203 86.8842C133.492 90.1462 134.51 94.0462 136.836 96.7622C139.088 99.3922 142.588 99.8892 145.853 100.081C150.248 100.329 154.656 100.09 158.998 99.3681C159.344 99.3111 159.268 98.7132 158.914 98.7502L158.932 98.7822ZM178.257 45.6082C177.853 45.5196 177.431 45.5772 177.065 45.7707C176.7 45.9643 176.415 46.2812 176.261 46.6652C176.032 47.2972 176.195 48.0012 176.397 48.6412C176.547 49.1152 176.717 49.5822 176.908 50.0432C177.034 50.3922 177.224 50.7132 177.469 50.9922C177.722 51.2712 178.101 51.3992 178.472 51.3302C179.074 51.1772 179.292 50.4402 179.346 49.8212C179.399 49.2273 179.399 48.63 179.346 48.0362C179.376 48.8262 179.42 49.6662 179.86 50.3252C180.299 50.9852 181.287 51.3452 181.909 50.8532C182.418 50.4482 182.46 49.6972 182.423 49.0482C182.393 48.5459 182.346 48.0449 182.28 47.5462C182.51 48.2502 182.554 49.0282 182.912 49.6682C183.27 50.3082 184.127 50.7942 184.754 50.4082C185.199 50.1282 185.327 49.5472 185.389 49.0232C185.471 48.3122 185.497 47.5952 185.468 46.8802C185.47 46.2673 185.35 45.6602 185.115 45.0942C184.994 44.8124 184.81 44.5623 184.577 44.3632C184.344 44.1641 184.068 44.0214 183.771 43.9462C183.171 43.8272 182.477 44.1562 182.29 44.7392C182.111 44.3041 181.777 43.9509 181.353 43.7482C180.928 43.5455 180.444 43.5077 179.993 43.6422C179.55 43.8027 179.173 44.1055 178.921 44.5032C178.668 44.9009 178.555 45.3711 178.598 45.8402" fill="#D1D7FF"/>
<path d="M185.423 45C185.023 43.315 182.684 42.838 181.884 44.505H182.702C181.536 41.984 177.911 43.214 178.054 45.844C178.093 46.543 179.136 46.55 179.148 45.844C179.175 44.248 181.057 43.234 181.884 44.982C181.926 45.0526 181.986 45.1111 182.058 45.1516C182.13 45.1922 182.211 45.2135 182.293 45.2135C182.375 45.2135 182.456 45.1922 182.528 45.1516C182.6 45.1111 182.66 45.0526 182.702 44.982C183.262 43.797 184.302 44.77 184.877 45.328C184.929 45.376 184.995 45.4061 185.065 45.414C185.135 45.4218 185.206 45.407 185.267 45.3717C185.328 45.3363 185.376 45.2823 185.404 45.2176C185.432 45.1528 185.439 45.0808 185.423 45.012V45Z" fill="#4B5662"/>
<path d="M178.345 45.2919C177.325 45.0449 176.291 45.4179 175.851 46.4259C175.32 47.6379 176.002 49.1699 176.498 50.2859C176.908 51.2099 177.871 52.3159 178.968 51.6169C180.064 50.9179 179.874 49.0829 179.805 48.0389C179.765 47.4309 178.817 47.4209 178.854 48.0389C178.916 49.5199 179.392 51.7429 181.371 51.5549C183.289 51.3699 182.917 48.8389 182.761 47.5499L181.773 47.6799C182.131 48.9519 182.267 50.6979 183.86 51.0339C185.176 51.3139 185.811 50.1499 185.91 49.0169C185.964 48.4069 184.961 48.2759 184.835 48.8709C184.824 49.0866 184.779 49.2992 184.702 49.5009L183.835 49.8959C183.535 49.7359 183.313 49.4609 183.223 49.1329C182.976 48.6069 182.897 47.9739 182.729 47.4159C182.581 46.8999 181.677 46.9719 181.741 47.5499C181.805 48.1279 182.158 49.3799 181.86 49.9159L180.951 50.5599C180.712 50.4822 180.499 50.3419 180.332 50.1538C180.166 49.9657 180.053 49.7365 180.005 49.4899C179.878 49.017 179.819 48.5285 179.83 48.0389H178.879C178.938 48.6325 178.938 49.2304 178.879 49.8239C178.9 50.6159 178.433 50.7239 177.476 50.1449C177.343 49.8409 177.229 49.5349 177.108 49.2219C176.646 47.9519 176.244 45.8459 178.264 45.9339C178.342 45.9326 178.417 45.9033 178.476 45.8515C178.534 45.7996 178.573 45.7285 178.583 45.651C178.594 45.5736 178.577 45.4948 178.534 45.4289C178.492 45.3631 178.428 45.3145 178.353 45.2919H178.345Z" fill="#4B5662"/>
<path d="M179.844 57.382L178.234 55.794C177.444 55.014 176.619 54.169 176.382 53.078C176.167 52.09 176.48 51.058 177.029 50.218C177.612 49.4005 178.319 48.6783 179.123 48.077C179.454 47.807 179.847 47.529 180.264 47.61C180.681 47.692 180.965 48.134 181.037 48.563C181.205 49.566 180.59 50.517 179.982 51.332C180.761 51.6992 181.402 52.3067 181.81 53.065C182.218 53.8233 182.372 54.6926 182.249 55.545" fill="#D1D7FF"/>
<path d="M180.102 57.1258C178.758 55.6258 176.353 53.8438 177.015 51.5688C177.336 50.4628 178.176 49.6208 179.028 48.8888C179.235 48.7068 179.45 48.5308 179.67 48.3638C180.463 48.5278 180.71 48.9158 180.411 49.5268C180.195 50.0832 179.891 50.6009 179.509 51.0598C179.438 51.1877 179.42 51.3383 179.459 51.4793C179.498 51.6204 179.59 51.7405 179.717 51.8138C180.246 52.0808 180.713 52.4578 181.085 52.9198C181.542 53.4658 182.32 52.6728 181.868 52.1368C181.433 51.6032 180.89 51.1671 180.275 50.8568L180.472 51.6138C181.268 50.5198 182.399 48.4578 180.966 47.3438C179.731 46.3978 178.25 48.0248 177.467 48.8248C176.37 49.9708 175.474 51.5808 175.871 53.2188C176.331 55.1088 178.225 56.4288 179.598 57.6288C179.668 57.6886 179.758 57.7198 179.85 57.7162C179.942 57.7125 180.029 57.6744 180.094 57.6092C180.16 57.5441 180.198 57.4569 180.201 57.3648C180.205 57.2728 180.174 57.1828 180.114 57.1128L180.102 57.1258ZM143.413 214.941C143.413 217.71 143.297 220.481 143.053 223.239C143.026 223.942 142.884 224.637 142.63 225.294C142.25 226.136 141.539 226.776 140.845 227.391L137.511 230.354C136.827 230.959 136.084 231.7 136.135 232.614C136.175 233.278 136.656 233.849 137.237 234.182C137.835 234.479 138.482 234.666 139.146 234.733C141.512 235.098 143.901 235.289 146.295 235.306C148.385 235.323 150.669 235.128 152.183 233.688C152.677 234.182 153.588 233.856 153.912 233.241C154.235 232.626 154.159 231.888 154.057 231.199C153.385 226.079 153.137 220.912 153.316 215.751" fill="#4B5662"/>
<path d="M143.085 214.94C143.048 216.978 142.946 219.014 142.778 221.045C142.689 222.116 142.68 223.312 142.398 224.356C142.116 225.401 141.524 226.055 140.768 226.744C139.486 227.91 138.113 228.982 136.851 230.167C135.997 230.97 135.253 232.022 135.683 233.237C136.113 234.452 137.397 234.993 138.6 235.213C140.353 235.531 142.126 235.732 143.907 235.813C146.856 235.978 150.232 236.176 152.597 234.099L151.891 234.19C152.748 234.805 153.901 234.437 154.415 233.533C155.23 232.123 154.455 229.829 154.304 228.313C153.892 224.139 153.753 219.942 153.889 215.75C153.914 215.009 152.77 215.009 152.746 215.75C152.648 218.652 152.68 221.556 152.844 224.455C152.923 225.823 153.032 227.19 153.17 228.555C153.245 229.276 153.328 229.997 153.417 230.718C153.449 230.985 153.862 234.175 152.479 233.188C152.367 233.124 152.238 233.099 152.111 233.115C151.983 233.132 151.865 233.189 151.773 233.279C149.592 235.193 146.11 234.793 143.43 234.613C141.81 234.504 140.099 234.41 138.521 234.015C137.565 233.768 136.377 233.128 136.881 231.945C137.16 231.293 137.908 230.767 138.419 230.306C140.23 228.678 142.961 226.991 143.418 224.426C143.964 221.368 143.808 218.037 143.754 214.945C143.756 214.9 143.75 214.854 143.734 214.812C143.718 214.769 143.694 214.73 143.663 214.697C143.632 214.664 143.594 214.638 143.553 214.62C143.511 214.602 143.466 214.593 143.421 214.593C143.375 214.593 143.33 214.602 143.288 214.62C143.247 214.638 143.209 214.664 143.178 214.697C143.147 214.73 143.123 214.769 143.107 214.812C143.091 214.854 143.085 214.9 143.087 214.945L143.085 214.94ZM200.063 215.277C201.393 217.273 202.554 219.377 203.533 221.567C203.886 222.276 204.131 223.033 204.262 223.814C204.375 224.716 204.207 225.625 204.042 226.516L203.449 229.692C203.394 230.162 203.244 230.617 203.01 231.028C202.783 231.374 202.432 231.646 202.298 232.038C202.118 232.572 202.419 233.177 202.879 233.505C203.358 233.804 203.907 233.975 204.472 233.999C205.87 234.139 207.281 234.029 208.64 233.673C208.98 233.603 209.301 233.462 209.581 233.258C209.826 233.031 210.026 232.762 210.174 232.463L214.837 224.252C215.363 223.323 215.903 222.338 215.891 221.273C215.869 219.48 214.343 218.132 213.046 216.892C210.952 214.892 209.137 212.521 208.184 209.787" fill="#4B5662"/>
<path d="M199.821 215.42C200.846 217.247 201.866 219.09 202.728 221.001C203.148 221.937 203.595 222.888 203.696 223.918C203.819 225.172 203.432 226.489 203.202 227.716C203.034 228.605 202.987 229.65 202.59 230.47C202.271 231.129 201.631 231.564 201.624 232.364C201.624 233.705 202.908 234.391 204.054 234.572C205.716 234.836 208.005 234.784 209.534 234.008C210.169 233.687 210.485 233.164 210.828 232.564C211.376 231.608 211.915 230.647 212.456 229.689C213.523 227.802 214.639 225.935 215.666 224.009C216.407 222.626 216.802 221.174 216.16 219.677C215.419 218.001 213.846 216.862 212.624 215.565C210.951 213.867 209.643 211.844 208.781 209.621C208.509 208.88 207.314 209.201 207.588 209.95C208.297 211.861 209.328 213.637 210.636 215.2C211.89 216.726 213.695 217.931 214.735 219.616C216.103 221.838 214.241 224.061 213.142 225.995L211.507 228.867C210.897 229.936 210.366 231.159 209.638 232.149C208.771 233.324 207.255 233.403 205.872 233.428C205.089 233.428 202.474 233.495 202.97 232.082C203.091 231.736 203.543 231.383 203.711 231.035C203.869 230.659 203.98 230.265 204.042 229.862C204.257 228.807 204.444 227.741 204.625 226.681C204.965 224.705 204.825 223.132 203.98 221.31C202.985 219.124 201.754 217.054 200.308 215.136C200.093 214.854 199.638 215.094 199.814 215.42H199.821Z" fill="#4B5662"/>
<path d="M153.607 131.631C151.234 134.906 149.844 138.769 148.485 142.574C146.137 149.136 143.793 155.715 142.175 162.494C138.417 178.299 138.772 194.772 139.148 211.022C139.197 213.143 139.58 215.751 141.578 216.455C142 216.605 142.519 216.702 142.716 217.094C142.892 217.445 142.716 217.88 142.837 218.258C143.025 218.895 143.842 219.048 144.507 219.087L150.575 219.446C151.523 219.5 152.55 219.532 153.326 218.974C154.101 218.416 154.267 217.023 153.415 216.603C155.111 216.465 156.608 215.321 157.536 213.886C158.465 212.452 158.907 210.772 159.223 209.098C161.54 196.824 158.072 183.414 163.397 172.113C164.533 169.708 166.032 167.493 167.247 165.127C169.188 161.346 170.373 157.224 171.302 153.08C173.243 144.422 174.085 135.299 171.821 126.724C171.722 126.347 171.122 125.983 171.08 126.371" fill="#8DAAE2"/>
<path d="M153.314 131.46C151.232 134.303 149.834 137.528 148.621 140.812C147.231 144.549 145.87 148.298 144.603 152.079C142.084 159.536 140.339 167.232 139.397 175.046C138.454 182.969 138.259 190.953 138.316 198.925C138.345 202.876 138.424 206.827 138.526 210.779C138.563 212.132 138.651 213.535 139.182 214.799C139.676 215.98 140.385 216.437 141.422 217.059C142 217.405 142.02 217.738 142.232 218.338C142.292 218.555 142.39 218.76 142.521 218.943C142.894 219.41 143.492 219.58 144.06 219.664C146.036 219.958 148.115 219.911 150.11 220.035C151.484 220.114 153.259 220.25 154.166 218.975C154.855 218.005 154.724 216.73 153.731 216.059L153.417 217.217C159.737 216.427 160.233 208.094 160.564 203.162C161.001 196.662 160.507 190.13 161.13 183.653C161.436 180.442 162.051 177.256 163.202 174.241C164.437 170.989 166.476 168.158 168.015 165.057C170.979 159.06 172.441 152.215 173.298 145.611C173.832 141.743 173.961 137.829 173.68 133.935C173.533 132.055 173.264 130.186 172.875 128.341C172.668 127.368 172.537 125.55 171.174 125.582C171.06 125.582 170.949 125.612 170.85 125.668C170.751 125.724 170.669 125.805 170.611 125.903L170.534 126.054C170.141 126.795 171.275 127.449 171.655 126.709L171.734 126.56L171.174 126.881C171.458 126.881 172.04 130.959 172.102 131.386C172.346 133.139 172.486 134.904 172.52 136.673C172.576 139.834 172.379 142.995 171.929 146.125C171.055 152.387 169.657 158.925 166.79 164.605C165.432 167.299 163.696 169.791 162.488 172.567C161.401 175.126 160.648 177.815 160.246 180.566C159.362 186.268 159.604 192.049 159.529 197.796C159.488 201.17 159.357 204.558 158.813 207.894C158.297 211.06 157.265 215.508 153.417 215.987C152.812 216.061 152.56 216.777 153.104 217.145C153.896 217.684 152.946 218.518 152.543 218.694C152.145 218.826 151.726 218.881 151.308 218.854C150.604 218.854 149.893 218.785 149.189 218.743L146.858 218.61C146.095 218.565 144.825 218.711 144.104 218.427C143.255 218.089 143.61 217.595 143.341 216.945C143.173 216.574 142.869 216.281 142.492 216.128C141.822 215.797 141.227 215.713 140.743 215.071C140.359 214.5 140.106 213.852 140.002 213.172C139.738 211.851 139.783 210.48 139.755 209.139C139.713 207.321 139.676 205.504 139.644 203.686C139.581 200.284 139.564 196.881 139.592 193.479C139.664 186.564 139.985 179.649 140.906 172.799C141.827 165.948 143.499 159.216 145.613 152.612C146.762 149.016 148.011 145.45 149.266 141.897C150.501 138.392 151.805 134.898 153.921 131.816C154.168 131.45 153.59 131.124 153.336 131.472L153.314 131.46Z" fill="#D1D7FF"/>
<path d="M166.047 130.908C166.499 138.25 165.988 145.642 165.943 152.961C165.896 160.393 167.749 167.74 170.542 174.588C173.011 180.661 176.222 186.395 179.617 192.003C182.796 197.274 184.804 203.322 188.528 208.253C190.671 211.096 192.356 214.254 195.912 214.398C196.487 214.422 197.092 214.398 197.604 214.659C198.063 214.906 198.379 215.336 198.801 215.633C200.053 216.504 201.765 215.879 203.148 215.257C205.393 214.232 209.505 211.743 209.243 209.286C209.119 208.12 208.331 207.142 207.949 206.033C207.398 204.433 207.721 202.684 207.754 200.993C207.847 196.133 205.499 191.608 203.308 187.272C200.409 181.574 194.072 172.479 191.474 166.638C190.192 163.761 188.933 160.805 188.636 157.669C188.36 154.754 188.93 151.835 189.15 148.919C189.51 143.744 188.786 138.55 187.025 133.67C185.264 128.791 182.504 124.332 178.921 120.58" fill="#8DAAE2"/>
<path d="M165.639 152.962C165.232 166.866 171.695 179.881 178.617 191.53C181.931 197.104 184.112 203.332 187.97 208.57C189.434 210.56 190.814 212.948 193.02 214.21C194.057 214.806 195.089 214.951 196.257 215.048C197.794 215.171 198.552 216.655 200.174 216.705C202.515 216.776 205.113 215.119 206.929 213.766C208.494 212.593 210.272 210.879 209.774 208.733C209.416 207.189 208.359 206.016 208.25 204.384C208.134 202.655 208.457 200.959 208.292 199.232C207.983 196.022 206.788 193.024 205.415 190.142C202.97 185.02 199.95 180.234 197.003 175.383C193.981 170.397 190.669 165.063 189.496 159.274C188.715 155.427 189.676 151.581 189.837 147.726C189.969 144.353 189.642 140.977 188.866 137.692C187.314 131.096 184.032 125.032 179.358 120.126C178.785 119.526 177.876 120.437 178.449 121.035C182.508 125.288 185.485 130.455 187.13 136.099C187.974 138.973 188.459 141.94 188.575 144.933C188.683 147.981 188.226 150.949 187.999 153.977C187.56 159.837 189.846 165.248 192.6 170.306C195.141 174.969 198.083 179.401 200.765 183.983C202.134 186.317 203.394 188.714 204.543 191.164C205.924 194.108 207.099 197.249 207.143 200.549C207.163 202.03 206.897 203.497 207.094 204.967C207.292 206.436 208.329 207.619 208.576 209.066C208.964 211.38 205.743 213.158 204.064 214.07C202.916 214.69 201.505 215.49 200.169 215.413C199.325 215.364 198.878 214.756 198.243 214.309C197.756 213.982 197.187 213.797 196.601 213.776C195.314 213.677 194.198 213.529 193.124 212.753C192.01 211.946 191.168 210.8 190.367 209.703C188.602 207.281 186.94 204.861 185.554 202.198C184.169 199.536 182.976 196.869 181.588 194.254C179.914 191.1 177.95 188.104 176.219 184.98C174.428 181.792 172.802 178.515 171.347 175.161C168.324 168.096 166.444 160.657 166.237 152.959C166.237 152.879 166.205 152.802 166.149 152.746C166.092 152.689 166.015 152.657 165.936 152.657C165.856 152.657 165.779 152.689 165.722 152.746C165.666 152.802 165.634 152.879 165.634 152.959L165.639 152.962ZM64.253 25.0929V20.1539C64.2533 19.1055 64.047 18.0674 63.646 17.0987C63.245 16.1301 62.6571 15.2499 61.9158 14.5085C61.1746 13.7671 60.2946 13.179 59.326 12.7777C58.3575 12.3764 57.3194 12.1699 56.271 12.1699C54.1535 12.1699 52.1228 13.0111 50.6255 14.5084C49.1282 16.0057 48.287 18.0364 48.287 20.1539V25.0939C48.3027 26.4178 47.8671 27.7076 47.052 28.7509C46.9966 28.8131 46.9648 28.8927 46.962 28.9759V31.2279H65.58V28.9759C65.5772 28.8927 65.5454 28.8131 65.49 28.7509C64.6745 27.7074 64.2375 26.4173 64.253 25.0929Z" fill="#D1D7FF"/>
<path d="M64.633 25.0938C64.633 23.1178 64.816 21.0408 64.561 19.0728C64.3457 17.4088 63.6339 15.8484 62.5186 14.595C61.4032 13.3416 59.936 12.4534 58.3083 12.0463C56.6807 11.6392 54.9681 11.7321 53.394 12.3128C51.8199 12.8935 50.4573 13.9351 49.484 15.3018C47.813 17.6378 47.934 20.2608 47.934 22.9798C47.934 24.5228 48.077 26.1398 47.378 27.5728C47.028 28.2938 46.618 28.6298 46.608 29.4198V31.2278C46.6093 31.3248 46.6483 31.4175 46.7169 31.4862C46.7854 31.5549 46.878 31.5942 46.975 31.5958H65.591C65.6882 31.5945 65.781 31.5553 65.8498 31.4866C65.9185 31.4178 65.9577 31.325 65.959 31.2278C65.959 30.5268 66.061 29.7458 65.959 29.0518C65.899 28.6548 65.697 28.4298 65.478 28.0838C64.9283 27.1831 64.6361 26.1489 64.633 25.0938C64.618 24.6218 63.893 24.6188 63.893 25.0938C63.898 25.7848 64.006 26.4718 64.213 27.1308C64.44 27.8128 65.023 28.4108 65.216 29.0518C65.409 29.6948 65.216 30.5838 65.216 31.2278L65.584 30.8598H46.963L47.331 31.2278V30.1018C47.331 29.2348 47.375 29.0498 47.825 28.2888C48.4065 27.223 48.6963 26.0225 48.665 24.8088C48.679 22.8758 48.442 20.8008 48.768 18.8828C49.0698 17.0813 50.009 15.4483 51.4144 14.2815C52.8197 13.1147 54.5976 12.4918 56.4239 12.5265C58.2502 12.5612 60.0031 13.251 61.3632 14.4703C62.7232 15.6896 63.5998 17.3571 63.833 19.1688C64.08 21.1048 63.9 23.1448 63.9 25.0958C63.9085 25.1872 63.951 25.2722 64.0189 25.334C64.0869 25.3957 64.1756 25.4299 64.2674 25.4296C64.3593 25.4293 64.4477 25.3948 64.5154 25.3326C64.583 25.2705 64.625 25.1853 64.633 25.0938Z" fill="#D1D7FF"/>
<path d="M65.356 25.0929C65.356 23.0769 65.529 20.9779 65.27 18.9729C65.0373 17.1553 64.2599 15.4507 63.04 14.0833C61.8201 12.7159 60.2149 11.7498 58.4355 11.3121C56.6561 10.8743 54.7859 10.9855 53.0709 11.6309C51.3559 12.2763 49.8764 13.4257 48.827 14.9279C47.098 17.3779 47.175 20.1339 47.175 22.9779C47.175 24.3739 47.335 25.9029 46.723 27.1989C46.328 28.0309 45.868 28.4859 45.851 29.4219C45.839 30.0239 45.851 30.6269 45.851 31.2299C45.8549 31.5209 45.9723 31.7988 46.1781 32.0045C46.384 32.2101 46.662 32.3273 46.953 32.3309H65.568C65.859 32.3273 66.137 32.2101 66.3429 32.0045C66.5487 31.7988 66.6661 31.5209 66.67 31.2299C66.67 30.5129 66.737 29.7679 66.67 29.0539C66.618 28.5009 66.388 28.1839 66.09 27.7149C65.6065 26.9264 65.3501 26.0198 65.349 25.0949C65.304 23.6799 63.099 23.6749 63.143 25.0949C63.153 25.8489 63.271 26.5969 63.492 27.3179C63.602 27.6569 63.738 27.9879 63.899 28.3059C64.008 28.5229 64.435 28.9559 64.469 29.0459C64.677 29.6099 64.469 30.6119 64.469 31.2219L65.571 30.1209H46.963L48.064 31.2219V30.0959C48.0393 29.8091 48.0393 29.5207 48.064 29.2339C48.131 28.8959 48.163 29.0319 48.449 28.6539C49.232 27.6189 49.38 26.0509 49.39 24.8039C49.403 22.9319 49.17 20.9289 49.464 19.0739C49.7222 17.4368 50.5621 15.9478 51.8294 14.8798C53.0968 13.8119 54.7067 13.2367 56.3638 13.2598C58.021 13.2829 59.6142 13.9027 60.8514 15.0056C62.0885 16.1084 62.8865 17.6203 63.099 19.2639C63.346 21.1659 63.151 23.1759 63.151 25.0879C63.151 26.5099 65.356 26.5129 65.356 25.0929Z" fill="#D1D7FF"/>
<path d="M102.953 95.242V66.32C102.953 40.537 82.053 19.645 56.278 19.645C30.495 19.645 9.60301 40.547 9.60301 66.32V95.242C9.60301 102.971 7.21501 110.607 2.37401 116.631C2.05588 116.993 1.87253 117.454 1.85501 117.935V131.11H110.715V117.935C110.698 117.454 110.515 116.993 110.197 116.631C105.339 110.607 102.953 102.971 102.953 95.241V95.242Z" fill="#222B3D"/>
<path d="M103.321 95.2398V79.5498C103.321 74.0148 103.6 68.3918 103.195 62.8648C101.714 42.6658 86.896 25.2058 67.164 20.5358C47.074 15.7598 26.218 24.6388 15.734 42.4288C11.326 49.8968 9.23 58.3488 9.23 66.9888V85.8568C9.23 92.6408 9.657 99.5288 7.57 106.086C6.58694 109.186 5.14059 112.121 3.28 114.789C2.589 115.776 1.574 116.668 1.473 117.927C1.453 118.174 1.473 118.451 1.473 118.708V131.103C1.47429 131.2 1.51348 131.293 1.58222 131.362C1.65095 131.43 1.7438 131.469 1.841 131.471H106.263C107.628 131.471 109.155 131.663 110.513 131.471C110.575 131.467 110.638 131.467 110.701 131.471C110.798 131.469 110.89 131.43 110.959 131.361C111.027 131.293 111.065 131.2 111.066 131.103V121.135C111.066 119.992 111.246 118.688 111.027 117.555C110.893 116.858 110.407 116.344 109.989 115.794C109.407 115.029 108.862 114.238 108.354 113.423C107.287 111.711 106.384 109.901 105.658 108.019C104.111 103.937 103.319 99.6072 103.321 95.2418C103.321 95.1437 103.282 95.0496 103.213 94.9802C103.143 94.9108 103.049 94.8718 102.951 94.8718C102.853 94.8718 102.759 94.9108 102.689 94.9802C102.62 95.0496 102.581 95.1437 102.581 95.2418C102.62 102.572 104.712 109.906 109.1 115.836C109.688 116.631 110.283 117.332 110.335 118.34C110.365 119.031 110.335 119.73 110.335 120.422V131.11L110.703 130.745H3.475C3.105 130.745 2.377 130.599 2.028 130.745C1.96592 130.753 1.90308 130.753 1.841 130.745L2.209 131.11V118.844C2.19295 118.548 2.19295 118.252 2.209 117.957C2.359 116.651 3.908 115.223 4.602 114.142C7.832 109.123 9.561 103.243 9.896 97.3088C10.006 95.3578 9.953 93.3918 9.953 91.4388V66.3198C9.9516 59.99 11.2478 53.7272 13.7616 47.918C16.2754 42.1088 19.9535 36.8766 24.5686 32.5445C29.1836 28.2125 34.6378 24.8725 40.5943 22.7308C46.5507 20.5892 52.883 19.6914 59.2 20.0928C79.779 21.3698 97.478 36.7478 101.635 56.9248C102.857 62.8518 102.588 68.8928 102.588 74.8958V95.2408C102.596 95.3323 102.638 95.4174 102.706 95.4793C102.774 95.5413 102.863 95.5756 102.954 95.5756C103.046 95.5756 103.135 95.5413 103.203 95.4793C103.271 95.4174 103.313 95.3333 103.321 95.2418V95.2398Z" fill="#D1D7FF"/>
<path d="M56.27 108.418C26.21 108.418 1.84 112.616 1.84 117.815V130.993H110.701V117.815C110.701 112.626 86.33 108.418 56.27 108.418Z" fill="#8DAAE2"/>
<path d="M50.922 18.7202C27.224 21.3902 9.12199 41.1222 8.50199 64.9612C8.34299 71.0862 8.48399 77.2312 8.48399 83.3572C8.48399 90.7092 9.12599 98.4742 6.91399 105.584C5.86781 108.96 4.26214 112.136 2.16399 114.98C1.45499 115.939 0.793991 116.677 0.738991 117.914C0.718991 118.381 0.738991 118.853 0.738991 119.317V130.998C0.742874 131.289 0.860224 131.567 1.06605 131.773C1.27188 131.979 1.54993 132.096 1.84099 132.1H106.263C107.668 132.1 109.108 132.193 110.513 132.1H110.701C110.992 132.096 111.269 131.978 111.475 131.772C111.68 131.567 111.798 131.289 111.802 130.998V121.784C111.802 120.49 111.861 119.179 111.802 117.887C111.745 116.665 111.076 115.911 110.375 114.973C109.317 113.542 108.383 112.022 107.584 110.431C105.114 105.527 104.06 100.101 104.055 94.6262V66.3702C104.127 43.4432 87.916 23.6902 65.415 19.2872C63.9689 19.0083 62.5107 18.7967 61.045 18.6532C59.635 18.5042 59.645 20.7102 61.045 20.8562C84.249 23.3062 101.86 42.8812 101.852 66.2152C101.869 72.2502 101.852 78.2862 101.852 84.3192C101.852 91.5972 101.311 99.1252 103.502 106.16C104.514 109.457 106.029 112.579 107.992 115.414C108.53 116.185 109.495 117.032 109.597 117.987C109.624 118.481 109.624 118.976 109.597 119.469V130.985L110.701 129.881H6.27899C4.93999 129.881 3.35199 129.634 2.02899 129.881C1.96647 129.887 1.90351 129.887 1.84099 129.881L2.94199 130.985V122.119C2.94199 120.773 2.81599 119.356 2.94199 118.015C3.03599 117.027 4.00199 116.194 4.54999 115.409C5.52774 114.006 6.3915 112.527 7.13299 110.986C9.55299 105.955 10.682 100.441 10.689 94.8722V66.8782C10.689 57.0512 13.532 47.5532 19.289 39.5442C25.898 30.4165 35.6371 24.0425 46.647 21.6392C48.0597 21.3331 49.4864 21.0952 50.922 20.9262C52.314 20.7632 52.329 18.5572 50.922 18.7232V18.7202Z" fill="#D1D7FF"/>
<path d="M0.740014 117.814V130.992C0.743891 131.283 0.860997 131.56 1.06642 131.766C1.27185 131.971 1.54939 132.089 1.84001 132.093H106.263C107.668 132.093 109.108 132.187 110.513 132.093H110.701C110.992 132.088 111.269 131.971 111.475 131.766C111.68 131.56 111.798 131.283 111.802 130.992V117.814C111.802 116.397 109.597 116.394 109.597 117.814V130.992L110.701 129.888H6.27901C4.94001 129.888 3.35201 129.641 2.02901 129.888C1.96649 129.894 1.90354 129.894 1.84101 129.888L2.94201 130.992V117.814C2.94201 116.397 0.740014 116.394 0.740014 117.814Z" fill="#D1D7FF"/>
<path d="M56.271 138.671C80.8405 138.671 100.758 135.233 100.758 130.991C100.758 126.749 80.8405 123.311 56.271 123.311C31.7015 123.311 11.784 126.749 11.784 130.991C11.784 135.233 31.7015 138.671 56.271 138.671Z" fill="#4B5662"/>
<path fill-rule="evenodd" clip-rule="evenodd" d="M1.84 130.991C1.84 125.79 26.21 121.592 56.27 121.592C86.33 121.592 110.701 125.805 110.701 130.991C110.701 136.177 86.331 140.376 56.271 140.376C26.211 140.376 1.84 136.192 1.84 130.991ZM15.703 130.991C15.703 132.596 33.864 133.898 56.271 133.898C78.675 133.898 96.839 132.596 96.839 130.991C96.839 129.386 78.677 128.084 56.271 128.084C33.864 128.084 15.703 129.386 15.703 130.991Z" fill="#222B3D"/>
<path d="M56.27 121.227C45.468 121.227 34.63 121.696 23.919 123.066C19.9632 123.541 16.0351 124.224 12.151 125.111C9.56099 125.724 6.92299 126.435 4.54699 127.643C3.35899 128.248 1.78599 129.164 1.51199 130.606C1.26499 131.942 2.35899 132.977 3.36199 133.656C5.32199 134.985 7.73499 135.703 9.99499 136.326C13.6114 137.283 17.2833 138.016 20.99 138.521C31.229 140.02 41.608 140.591 51.949 140.731C63.062 140.882 74.227 140.522 85.289 139.314C92.376 138.541 99.96 137.714 106.611 134.972C108.898 134.029 112.898 131.715 110.056 129.021C108.613 127.65 106.532 126.921 104.682 126.304C101.437 125.227 98.063 124.541 94.697 123.963C84.92 122.288 74.96 121.624 65.062 121.348C62.1353 121.267 59.2077 121.227 56.28 121.227C56.1819 121.227 56.0877 121.266 56.0184 121.335C55.949 121.405 55.91 121.499 55.91 121.597C55.91 121.695 55.949 121.789 56.0184 121.859C56.0877 121.928 56.1819 121.967 56.28 121.967C66.531 121.967 76.808 122.402 86.992 123.605C90.922 124.069 94.845 124.652 98.712 125.487C101.466 126.082 104.265 126.766 106.848 127.912C108.008 128.428 109.979 129.27 110.305 130.68C110.606 131.996 109.014 132.957 108.063 133.486C105.885 134.693 103.4 135.377 101 135.977C97.4808 136.826 93.9187 137.485 90.329 137.953C80.411 139.331 70.372 139.865 60.365 139.993C49.842 140.126 39.287 139.795 28.811 138.736C21.681 138.015 14.241 137.16 7.45399 134.758C5.32999 134.017 0.00498557 131.824 3.41599 129.196C5.11499 127.877 7.33799 127.201 9.36999 126.603C12.6432 125.676 15.9723 124.959 19.337 124.457C28.789 122.943 38.39 122.323 47.953 122.069C50.723 121.998 53.496 121.962 56.27 121.96C56.3615 121.952 56.4465 121.91 56.5085 121.842C56.5704 121.774 56.6048 121.685 56.6048 121.594C56.6048 121.502 56.5704 121.413 56.5085 121.345C56.4465 121.278 56.3615 121.235 56.27 121.227Z" fill="#8DAAE2"/>
<path d="M56.27 133.531C48.756 133.531 41.238 133.402 33.73 133.037C28.809 132.79 23.808 132.59 18.943 131.755C18.54 131.686 16.226 131.466 16.066 130.935C16.113 131.108 16.211 130.905 16.401 130.841C16.886 130.669 17.381 130.528 17.883 130.419C22.262 129.473 26.873 129.31 31.33 129.061C46.281 128.223 61.326 128.216 76.277 128.814C81.661 129.033 87.094 129.263 92.436 130.026C93.693 130.175 94.934 130.444 96.14 130.831C96.33 130.895 96.429 131.098 96.476 130.925C96.416 131.138 95.678 131.286 95.51 131.335C91.687 132.444 87.417 132.511 83.473 132.765C76.502 133.217 69.51 133.405 62.521 133.481C60.439 133.506 58.355 133.517 56.271 133.516C56.1727 133.516 56.0785 133.555 56.009 133.624C55.9395 133.694 55.9005 133.788 55.9005 133.886C55.9005 133.985 55.9395 134.079 56.009 134.148C56.0785 134.218 56.1727 134.257 56.271 134.257C64.406 134.257 72.545 134.111 80.668 133.671C85.41 133.424 90.346 133.274 94.992 132.227C95.582 132.093 96.967 131.898 97.167 131.167C97.367 130.436 96.379 130.125 95.866 129.962C94.335 129.468 92.683 129.312 91.097 129.122C88.45 128.806 85.79 128.604 83.127 128.436C66.967 127.411 50.66 127.421 34.477 128.162C29.209 128.409 23.857 128.611 18.641 129.517C17.933 129.641 13.638 130.582 16.016 131.762C17.199 132.35 18.706 132.471 19.99 132.654C22.398 132.992 24.823 133.202 27.248 133.38C34.657 133.923 42.1 134.121 49.531 134.215C51.774 134.241 54.014 134.255 56.254 134.257C56.3394 134.243 56.4174 134.2 56.4744 134.135C56.5313 134.07 56.5637 133.987 56.5657 133.901C56.5677 133.814 56.5393 133.73 56.4855 133.662C56.4316 133.595 56.3547 133.548 56.27 133.531Z" fill="#D1D7FF"/>
<path d="M0.740014 130.991C0.784014 132.72 2.23801 133.883 3.61401 134.671C5.85101 135.95 8.42401 136.691 10.907 137.323C19.397 139.484 28.273 140.314 36.993 140.884C48.524 141.628 60.089 141.703 71.629 141.109C80.858 140.642 90.191 139.857 99.237 137.886C102.311 137.217 105.46 136.426 108.288 135.009C109.876 134.214 111.745 132.964 111.802 130.991C111.837 129.571 109.634 129.571 109.597 130.991C109.612 131.101 109.584 131.212 109.518 131.302C109.41 131.549 109.24 131.765 109.024 131.927C108.447 132.421 107.802 132.831 107.11 133.144C104.766 134.303 102.151 134.959 99.617 135.547C91.391 137.446 82.893 138.232 74.479 138.758C63.6007 139.415 52.6947 139.482 41.809 138.96C32.953 138.538 24.028 137.814 15.332 136.071C12.27 135.458 9.13101 134.759 6.24901 133.525C5.38201 133.152 4.36701 132.65 3.71001 132.095C3.47558 131.906 3.27007 131.683 3.10001 131.435C2.91701 131.137 2.95701 131.216 2.95001 131.001C2.91501 129.583 0.712014 129.578 0.747014 131.001L0.740014 130.991Z" fill="#D1D7FF"/>
<path d="M56.27 132.797C48.756 132.797 41.238 132.666 33.73 132.303C28.875 132.071 23.936 131.874 19.138 131.049C18.492 130.949 17.853 130.812 17.224 130.639C17.024 130.582 16.829 130.506 16.629 130.441C16.68 130.459 16.572 130.323 16.584 130.419C16.606 130.604 16.804 130.755 16.804 130.99C16.804 131.224 16.606 131.372 16.584 131.558C16.584 131.654 16.584 131.558 16.683 131.513C16.915 131.442 17.646 131.222 18.078 131.13C22.395 130.197 26.937 130.044 31.33 129.797C46.281 128.962 61.326 128.952 76.277 129.562C81.594 129.777 86.965 129.999 92.24 130.748C93.46 130.918 94.667 131.174 95.85 131.513C95.937 131.54 95.97 131.693 95.93 131.543C95.8533 131.403 95.7913 131.255 95.745 131.101C95.703 130.797 95.92 130.661 95.95 130.419C95.95 130.33 95.95 130.436 95.85 130.464C95.885 130.451 95.456 130.597 95.308 130.639C91.546 131.733 87.346 131.792 83.466 132.044C76.494 132.496 69.503 132.681 62.514 132.76C60.431 132.782 58.348 132.793 56.264 132.795C54.846 132.795 54.844 134.998 56.264 134.998C64.398 134.998 72.538 134.852 80.66 134.412C85.469 134.153 90.47 134.002 95.187 132.931C96.123 132.721 97.557 132.437 97.876 131.36C98.234 130.155 96.989 129.545 96.061 129.251C94.471 128.757 92.747 128.584 91.097 128.387C88.45 128.068 85.79 127.868 83.127 127.698C66.967 126.675 50.66 126.685 34.477 127.423C29.142 127.67 23.719 127.89 18.447 128.806C17.389 128.992 15.885 129.152 15.067 129.94C14.174 130.797 14.675 131.916 15.646 132.395C16.881 133.027 18.439 133.168 19.795 133.36C22.265 133.709 24.756 133.931 27.248 134.101C34.657 134.645 42.1 134.842 49.531 134.936C51.773 134.964 54.014 134.977 56.253 134.976C57.688 135 57.69 132.797 56.27 132.797ZM42.866 29.2402C38.646 30.5192 34.909 33.0302 31.563 35.8462C27.787 39.0242 24.339 42.7762 21.81 47.0302C15.836 57.0822 16.42 69.4252 16.165 80.7082C15.999 88.0212 16.207 95.3132 16.197 102.626C16.197 103.367 17.313 103.367 17.345 102.626C17.607 96.4522 18.135 90.2982 18.264 84.1042C18.387 78.3322 18.38 72.5392 18.758 66.7742C19.116 61.1712 19.966 55.4142 22.383 50.2832C24.428 45.9412 27.433 42.0142 30.78 38.6092C34.237 35.1022 38.381 31.6622 43.064 29.9652C43.511 29.8022 43.333 29.0992 42.864 29.2422L42.866 29.2402ZM15.735 106.803C15.7947 106.682 15.8788 106.574 15.982 106.486C16.099 106.391 16.237 106.324 16.384 106.289C16.982 106.138 16.725 105.19 16.137 105.365C15.8692 105.44 15.6263 105.586 15.4336 105.786C15.2409 105.987 15.1054 106.236 15.041 106.506C14.94 106.914 15.535 107.205 15.742 106.803H15.735Z" fill="#D1D7FF"/>
<path d="M52.779 131.748C54.918 135.255 54.577 139.7 53.836 143.74C53.053 148.022 51.742 153.073 53.384 157.311C56.708 165.89 70.577 163.914 73.118 155.829C75.178 149.27 69.661 143.762 66.27 138.835C64.356 136.057 62.741 132.881 62.776 129.508" fill="#4B5662"/>
<path d="M52.419 131.952C55.827 138.514 51.937 145.621 51.809 152.45C51.715 157.344 53.967 161.814 58.872 163.239C62.677 164.346 67.076 163.452 70.217 161.063C74.24 158.004 75.203 152.889 73.297 148.308C70.58 141.781 63.522 137.069 63.45 129.512C63.45 128.633 62.077 128.63 62.084 129.512C62.141 135.56 66.503 140.015 69.671 144.739C72.461 148.903 74.479 154.504 70.561 158.683C67.969 161.446 63.7 162.661 60.017 161.861C55.058 160.779 53.194 156.354 53.384 151.607C53.646 145.075 57.061 137.634 53.117 131.554C53.0629 131.461 52.9742 131.394 52.8705 131.367C52.7668 131.34 52.6566 131.355 52.564 131.409C52.4714 131.463 52.4042 131.552 52.377 131.655C52.3498 131.759 52.3649 131.869 52.419 131.962V131.952Z" fill="#D1D7FF"/>
<path d="M54.7 130.442C55.9956 133.496 56.523 136.82 56.236 140.125C55.935 143.415 54.596 146.524 54.194 149.808C53.872 152.446 54.084 155.429 55.836 157.563C57.281 159.319 59.622 160.563 61.926 160.003C62.0052 159.977 62.0728 159.924 62.117 159.854C62.1613 159.783 62.1794 159.7 62.1682 159.617C62.157 159.534 62.1173 159.458 62.0558 159.402C61.9944 159.346 61.9152 159.313 61.832 159.309C58.945 159.368 56.957 157.407 56.125 154.755C55.223 151.878 55.922 148.85 56.54 145.998C57.71 140.592 57.653 135.277 55.218 130.219C55.078 129.928 54.564 130.138 54.69 130.442H54.7Z" fill="#D1D7FF"/>
<path d="M164.755 96.1298C164.442 95.4486 164.167 94.7501 163.933 94.0378C163.74 93.4378 163.616 92.7858 163.29 92.2428C163.231 92.136 163.135 92.0546 163.02 92.0145C162.905 91.9744 162.779 91.9783 162.666 92.0255C162.554 92.0726 162.463 92.1598 162.41 92.2701C162.358 92.3803 162.349 92.506 162.384 92.6228C162.595 93.3128 162.863 93.9859 163.184 94.6329C163.447 95.3082 163.83 95.9307 164.313 96.4708C164.56 96.7178 164.878 96.4038 164.755 96.1298ZM153.471 81.3338C152.385 82.6058 152.39 84.2239 151.597 85.6189C151.224 86.2729 150.404 86.5838 150.165 87.3178C149.9 88.1278 150.626 88.4758 150.579 89.2118C150.481 90.8118 149.513 92.8118 150.523 94.3238C151.231 95.3788 153.049 95.7938 154.227 95.7138C154.383 95.7049 154.53 95.6367 154.637 95.523C154.744 95.4094 154.804 95.2591 154.804 95.1028C154.804 94.9466 154.744 94.7963 154.637 94.6826C154.53 94.569 154.383 94.5008 154.227 94.4918C153.582 94.4118 152.896 94.4248 152.278 94.2098C151.291 93.8618 151.194 93.0078 151.251 92.0668C151.328 90.7968 151.851 89.5028 151.619 88.2488C151.533 87.7918 151.017 88.0858 151.439 87.3488C151.55 87.1568 151.856 87.0108 152.009 86.8558C152.296 86.5358 152.521 86.1658 152.676 85.7638C153.197 84.5118 153.007 82.8398 153.889 81.7688C154.136 81.4718 153.716 81.0448 153.461 81.3438L153.471 81.3338Z" fill="#4B5662"/>
<path d="M158.11 83.1482C157.725 82.8421 157.415 82.4515 157.205 82.0065C156.994 81.5616 156.889 81.0743 156.897 80.5822C156.102 80.8649 155.279 81.0594 154.442 81.1622C154.137 81.219 153.824 81.219 153.519 81.1622C153.356 81.1381 153.203 81.0697 153.076 80.9644C152.949 80.8591 152.854 80.7209 152.8 80.5651C152.747 80.4092 152.737 80.2417 152.772 80.0807C152.807 79.9197 152.886 79.7715 153 79.6522C153.222 79.3942 153.495 79.1852 153.8 79.0372C155.257 78.2392 157.05 77.8022 158.574 78.4642C158.688 78.5182 158.806 78.5642 158.927 78.6022C159.116 78.6332 159.309 78.6422 159.5 78.6292C160.134 78.6549 160.757 78.8033 161.335 79.0662C162.947 79.7282 164.424 80.7952 165.373 82.2642C166.321 83.7342 166.691 85.6012 166.168 87.2632C165.605 89.0482 164.111 90.4162 163.518 92.2022C163.439 92.4372 163.355 92.6962 163.13 92.8072C162.945 92.8685 162.745 92.8614 162.565 92.7872C162.225 92.7037 161.903 92.5572 161.616 92.3552C160.974 91.8612 160.792 90.9892 160.653 90.1952C160.621 90.0567 160.611 89.9139 160.624 89.7722C160.655 89.6224 160.706 89.4772 160.774 89.3402C160.983 88.8424 161.075 88.3029 161.041 87.7639C161.007 87.2249 160.849 86.701 160.579 86.2332C160.387 85.9022 160.14 85.6082 159.932 85.2852C159.735 84.923 159.512 84.5754 159.265 84.2452C159.139 84.0807 158.975 83.9496 158.786 83.8635C158.598 83.7774 158.391 83.7388 158.184 83.7512" fill="#D1D7FF"/>
<path d="M158.349 82.9069C157.754 82.2069 157.418 81.5109 157.43 80.5829C157.43 80.501 157.41 80.4203 157.374 80.347C157.337 80.2737 157.285 80.2098 157.219 80.1601C157.154 80.1104 157.079 80.0764 156.998 80.0606C156.918 80.0448 156.835 80.0476 156.756 80.0689C156.213 80.2319 154.516 80.9629 153.978 80.7009C152.664 80.0589 154.118 79.4219 154.427 79.2739C154.893 79.0485 155.382 78.877 155.887 78.7629C157.01 78.5159 157.751 78.8689 158.791 79.0859C159.418 79.2199 160.038 79.1529 160.663 79.3559C163.982 80.4419 166.975 84.0749 165.395 87.6559C164.812 88.9749 163.812 90.0559 163.221 91.3719C163.113 91.6189 163.068 91.9719 162.839 92.1129C162.485 92.3409 161.883 91.8389 161.668 91.5329C161.149 90.7929 161.241 89.8879 161.47 89.0909C161.873 87.6829 161.428 86.4479 160.648 85.2849C160.016 84.3389 159.514 83.0969 158.178 83.1949C158.042 83.2032 157.914 83.2632 157.82 83.3626C157.727 83.462 157.675 83.5934 157.675 83.7299C157.675 83.8664 157.727 83.9977 157.82 84.0971C157.914 84.1966 158.042 84.2566 158.178 84.2649C158.976 84.3609 159.907 86.1019 160.206 86.8009C160.678 87.9149 160.169 88.6159 160.05 89.6679C159.905 90.9449 160.594 92.5309 161.779 93.0839C162.868 93.5949 163.619 93.4389 164.078 92.3309C164.74 90.7329 165.948 89.4359 166.578 87.8259C167.79 84.7259 166.168 81.4599 163.577 79.6619C162.324 78.7964 160.874 78.2603 159.359 78.1029C158.551 78.0069 157.825 77.6239 156.986 77.6089C156.103 77.6203 155.232 77.8076 154.422 78.1599C153.434 78.5679 151.748 79.4809 152.382 80.8399C153.123 82.3999 155.889 81.4989 157.042 81.0869L156.366 80.5729C156.472 81.7479 156.934 82.7659 157.939 83.4299C158.28 83.6569 158.588 83.1829 158.351 82.8969L158.349 82.9069Z" fill="#D1D7FF"/>
<path d="M153.805 86.2132L153.749 86.1692L153.702 86.1072V86.1222L153.669 86.0452C153.67 86.0508 153.67 86.0566 153.669 86.0622L153.83 85.6672C153.775 85.6984 153.729 85.7436 153.697 85.7982C153.679 85.8315 153.664 85.8663 153.652 85.9022L153.689 85.8152C153.682 85.8333 153.672 85.8501 153.66 85.8652L153.719 85.7912L153.684 85.8232L153.763 85.7632L153.731 85.7812L153.823 85.7412H153.805L154.245 85.9192L154.284 86.0102C154.283 86.0046 154.283 85.9988 154.284 85.9932V86.0972V86.0802V86.1832C154.31 86.0793 154.296 85.9694 154.245 85.8752C154.211 85.8162 154.162 85.7675 154.102 85.7342C154.058 85.7041 154.006 85.6867 153.953 85.6842C153.901 85.672 153.847 85.672 153.795 85.6842C153.693 85.7138 153.606 85.7787 153.548 85.8672C153.52 85.9144 153.502 85.9668 153.496 86.0212C153.489 86.0755 153.494 86.1307 153.509 86.1832L153.534 86.2502C153.562 86.3268 153.614 86.393 153.681 86.4398C153.748 86.4866 153.827 86.5118 153.909 86.5122L154.013 86.4972C154.077 86.4799 154.136 86.4458 154.183 86.3982C154.258 86.3325 154.313 86.2468 154.341 86.1512C154.368 86.0787 154.375 85.9999 154.36 85.9239C154.344 85.8479 154.308 85.7777 154.255 85.7212C154.212 85.6783 154.158 85.6473 154.099 85.6312C154.038 85.6164 153.975 85.6164 153.914 85.6312C153.849 85.6507 153.79 85.685 153.741 85.7312C153.699 85.7741 153.668 85.8271 153.652 85.8852V85.9592C153.649 85.9969 153.658 86.0346 153.677 86.0672C153.7 86.1231 153.74 86.1705 153.791 86.2032L153.805 86.2132ZM158.823 87.4602C159.053 87.2252 159.532 86.7632 159.88 87.0472C160.127 87.2552 160.142 87.8302 160.095 88.1222C159.959 88.9622 159.354 89.2402 158.584 89.2232C158.011 89.2082 157.989 89.9632 158.458 90.1562C160.021 90.7762 161.295 88.9562 161.078 87.5682C160.974 86.9022 160.601 86.1662 159.863 86.0642C159.189 85.9712 158.668 86.5782 158.349 87.0942C158.316 87.1575 158.306 87.2305 158.321 87.3004C158.336 87.3703 158.376 87.4326 158.432 87.4763C158.489 87.52 158.559 87.5423 158.631 87.5394C158.702 87.5365 158.77 87.5084 158.823 87.4602Z" fill="#4B5662"/>
<path d="M159.446 87.806C159.333 87.704 159.165 87.779 159.049 87.84C158.974 87.8752 158.907 87.9267 158.854 87.9907C158.801 88.0546 158.763 88.1295 158.742 88.21C158.734 88.2592 158.739 88.3097 158.758 88.3558C158.777 88.402 158.808 88.442 158.849 88.4712C158.889 88.5005 158.937 88.5178 158.986 88.5213C159.036 88.5248 159.086 88.5143 159.13 88.491C159.172 88.4606 159.204 88.4192 159.224 88.3714C159.244 88.3236 159.25 88.2713 159.242 88.2203C159.234 88.1692 159.211 88.1214 159.178 88.0822C159.144 88.043 159.1 88.0138 159.051 87.998C159.023 87.9891 158.993 87.987 158.964 87.9917C158.935 87.9964 158.907 88.0078 158.883 88.0251C158.859 88.0424 158.839 88.065 158.826 88.0912C158.812 88.1174 158.804 88.1465 158.804 88.176C158.807 88.2404 158.826 88.3032 158.858 88.359L158.829 88.253L158.861 88.186L158.972 88.117H158.952H159.058L159.095 88.132L159.145 88.221C159.157 88.253 159.13 88.255 159.162 88.221C159.194 88.186 159.187 88.184 159.199 88.166C159.224 88.1329 159.252 88.1024 159.283 88.075C159.357 88.011 159.446 87.986 159.481 87.887C159.486 87.8703 159.487 87.8524 159.482 87.8354C159.478 87.8185 159.469 87.8031 159.456 87.791L159.446 87.806ZM152.536 90.5C152.928 90.59 153.477 90.513 153.682 90.115C153.717 90.0532 153.732 89.9826 153.727 89.912C153.722 89.8413 153.697 89.7737 153.654 89.7175C153.61 89.6613 153.552 89.619 153.485 89.5958C153.418 89.5726 153.346 89.5695 153.277 89.587C153.054 89.678 152.867 89.866 152.617 89.896C152.543 89.8976 152.473 89.9252 152.418 89.9739C152.363 90.0226 152.327 90.0892 152.316 90.162C152.305 90.2357 152.321 90.311 152.361 90.3735C152.402 90.4361 152.464 90.4805 152.536 90.5ZM154.164 84.567C154.238 84.5464 154.316 84.5442 154.392 84.5606C154.467 84.5769 154.537 84.6114 154.596 84.661C154.671 84.7319 154.77 84.7714 154.873 84.7714C154.977 84.7714 155.076 84.7319 155.151 84.661C155.223 84.587 155.264 84.4878 155.264 84.3845C155.264 84.2812 155.223 84.182 155.151 84.108C154.983 83.9395 154.757 83.8412 154.519 83.8331C154.281 83.8249 154.049 83.9075 153.87 84.064C153.623 84.278 153.887 84.624 154.164 84.557V84.567ZM157.015 98.869C156.657 98.076 156.415 97.234 156.087 96.431C155.827 95.791 155.509 94.903 154.785 94.703C154.673 94.6751 154.556 94.6804 154.447 94.7183C154.338 94.7561 154.243 94.8249 154.172 94.9162C154.102 95.0075 154.06 95.1174 154.051 95.2323C154.042 95.3471 154.067 95.4621 154.123 95.563C154.417 96.175 154.95 96.735 155.294 97.34C155.637 97.945 155.983 98.632 156.383 99.242C156.407 99.2835 156.439 99.3198 156.477 99.3489C156.516 99.378 156.559 99.3993 156.606 99.4116C156.652 99.4238 156.7 99.4268 156.748 99.4204C156.796 99.4139 156.841 99.3982 156.883 99.374C156.924 99.3498 156.961 99.3177 156.99 99.2795C157.019 99.2413 157.04 99.1978 157.053 99.1513C157.065 99.1049 157.068 99.0565 157.061 99.0089C157.055 98.9614 157.039 98.9155 157.015 98.874V98.869Z" fill="#4B5662"/>
<path d="M151.417 88.8081C152.257 88.4556 153.195 88.4102 154.065 88.6801C154.385 88.8061 154.715 88.9041 155.053 88.9711C155.362 89.0062 155.675 88.9558 155.957 88.8253C156.239 88.6948 156.48 88.4892 156.653 88.2311C157.093 87.5561 156.999 86.6531 157.369 85.9361C157.49 85.7472 157.592 85.5473 157.675 85.3391C157.905 84.5611 157.073 83.8031 157.181 82.9981C157.182 82.9577 157.193 82.9181 157.21 82.8819C157.228 82.8457 157.254 82.8137 157.285 82.7881C157.377 82.7281 157.498 82.7751 157.596 82.8221L159.915 83.9461C160.202 84.0841 160.525 84.2661 160.58 84.5831C160.661 85.0351 160.157 85.3431 159.77 85.5911C158.747 86.2451 158.1 87.3761 157.794 88.5541C157.488 89.7321 157.495 90.9601 157.53 92.1721C157.549 92.8981 157.577 93.6541 157.283 94.3161C156.905 95.1731 156.048 95.7411 155.132 95.9681C154.212 96.1522 153.265 96.1623 152.341 95.9981C151.795 95.9502 151.261 95.8088 150.763 95.5801C150.517 95.4609 150.3 95.2882 150.129 95.0745C149.958 94.8608 149.837 94.6116 149.775 94.3451C149.734 94.0151 149.755 93.6801 149.837 93.3581C150.084 92.0241 150.551 90.8731 150.899 89.5621C150.985 89.2381 151.069 88.6601 151.393 88.7821" fill="#D1D7FF"/>
<path d="M151.491 89.0759C152.551 88.8809 153.245 88.8629 154.282 89.1769C154.776 89.3299 155.235 89.4639 155.764 89.3249C156.892 89.0289 157.218 88.0609 157.458 87.0429C157.611 86.3959 158.053 85.8089 158.112 85.1659C158.162 84.6429 157.806 84.2579 157.767 83.7739C157.727 83.2899 157.52 83.3859 158.115 83.6179C158.517 83.7699 158.902 83.9629 159.263 84.1959C160.189 84.8699 159.402 85.1219 158.819 85.6779C157.831 86.6259 157.307 87.9719 157.107 89.3099C156.86 90.9099 157.589 93.5929 156.3 94.7899C155.122 95.8839 151.158 96.1309 150.427 94.4269C150.071 93.5969 150.57 92.4519 150.825 91.6099C151.052 90.8689 151.193 89.7449 151.625 89.0899L151.173 89.3519L151.368 89.3249C152.03 89.2389 152.04 88.1849 151.368 88.2709C150.17 88.4289 150.096 90.3919 149.812 91.3309C149.444 92.5379 148.777 94.1759 149.644 95.3189C150.568 96.5539 152.571 96.6769 153.973 96.6379C155.376 96.5979 156.816 96.1219 157.569 94.8919C158.515 93.3459 157.895 91.2319 158.137 89.5199C158.283 88.4999 158.611 87.4599 159.308 86.6729C159.755 86.1789 160.508 85.9029 160.881 85.3319C161.693 84.0969 160.056 83.4669 159.187 83.0619C158.587 82.7829 157.055 81.6819 156.717 82.8849C156.52 83.6249 157.174 84.2009 157.246 84.8799C157.29 85.2869 157.026 85.6329 156.883 85.9909C156.707 86.4279 156.683 86.8929 156.544 87.3369C156.038 88.9749 154.927 88.4019 153.677 88.2039C152.855 88.0472 152.004 88.1779 151.267 88.5739C150.983 88.7349 151.183 89.1329 151.479 89.0679L151.491 89.0759Z" fill="#D1D7FF"/>
<path d="M150.767 88.1519C150.184 90.0559 148.925 91.6819 148.873 93.7479C148.816 96.2029 151.041 96.6209 153.037 96.8029C154.966 96.9789 157.391 96.4669 158.171 94.4469C158.621 93.2819 158.356 92.0369 158.319 90.8319C158.265 89.0659 158.944 87.0259 160.579 86.1399C161.053 85.8919 160.633 85.1759 160.157 85.4179C158.554 86.2359 157.774 88.2019 157.529 89.8979C157.381 90.9129 157.593 91.9009 157.561 92.9159C157.512 94.4939 156.573 95.5219 155.04 95.8549C153.953 96.1019 152.817 95.9489 151.738 95.7289C151.029 95.5859 150.377 95.4519 149.997 94.7949C149.616 94.1379 149.73 93.1999 149.913 92.4549C150.259 91.0319 151.056 89.7549 151.311 88.2999C151.331 88.2277 151.321 88.1507 151.284 88.0856C151.247 88.0205 151.186 87.9728 151.114 87.9529C151.042 87.933 150.965 87.9426 150.9 87.9795C150.835 88.0165 150.787 88.0777 150.767 88.1499V88.1519Z" fill="#4B5662"/>
<path d="M152.335 90.9718C152.616 90.9563 152.89 90.8789 153.138 90.7453C153.385 90.6117 153.601 90.4251 153.768 90.1988C153.995 89.8728 153.471 89.4578 153.212 89.7718C152.98 90.0845 152.637 90.2971 152.254 90.3668C152.185 90.389 152.125 90.4348 152.086 90.4963C152.047 90.5579 152.031 90.6311 152.041 90.7032C152.051 90.7754 152.085 90.8418 152.139 90.891C152.193 90.9401 152.262 90.9687 152.335 90.9718ZM152.232 81.1698C153.316 82.7718 155.914 81.9598 157.157 80.9668C157.478 80.7198 157.045 80.1418 156.715 80.3938C155.793 81.0938 153.588 81.8488 152.684 80.8188C152.472 80.5718 152.049 80.8998 152.232 81.1698ZM156.778 82.7338C157.091 82.6608 157.395 82.5538 157.685 82.4148C158.07 82.2348 157.727 81.6198 157.349 81.8398C157.119 81.9748 156.874 82.0828 156.62 82.1628C156.547 82.1863 156.486 82.2369 156.45 82.3041C156.414 82.3714 156.405 82.45 156.426 82.5236C156.446 82.5972 156.494 82.6601 156.56 82.6991C156.625 82.7381 156.704 82.7512 156.778 82.7338ZM156.86 84.2838C157.314 84.2838 157.991 84.1548 158.255 83.7398C158.286 83.6813 158.299 83.6152 158.293 83.5494C158.287 83.4837 158.262 83.421 158.221 83.3689C158.181 83.3168 158.126 83.2775 158.064 83.2557C158.001 83.2338 157.934 83.2304 157.87 83.2458C157.698 83.3304 157.533 83.428 157.376 83.5378C157.216 83.6198 157.043 83.6738 156.864 83.6978C156.499 83.7448 156.472 84.2908 156.864 84.2878L156.86 84.2838ZM157.132 85.7128C157.176 85.7142 157.219 85.7038 157.258 85.6828C157.298 85.6702 157.335 85.6475 157.364 85.6168C157.396 85.5882 157.419 85.5511 157.431 85.5098C157.451 85.4712 157.46 85.4281 157.458 85.3848V85.2978C157.442 85.2441 157.413 85.1951 157.374 85.1548L157.307 85.1028C157.257 85.0737 157.2 85.0585 157.142 85.0588C157.055 85.0612 156.973 85.0954 156.91 85.1548C156.879 85.1832 156.856 85.219 156.843 85.2588C156.823 85.2977 156.814 85.3412 156.816 85.3848V85.4708C156.832 85.5254 156.861 85.5755 156.9 85.6168L156.966 85.6688C157.016 85.6979 157.074 85.7131 157.132 85.7128ZM159.629 89.8448C159.838 90.9438 160.056 92.4378 160.846 93.3018C161.422 93.9318 162.691 94.2628 163.516 94.0258C164.437 93.7638 164.449 92.3688 164.867 91.6658C165.543 90.5218 166.405 89.6158 166.726 88.2918C166.808 87.9578 166.314 87.7158 166.151 88.0448C165.444 89.4948 164.155 90.6278 163.577 92.1448C163.452 92.4798 163.452 92.9198 163.111 93.1318C162.688 93.3788 161.876 92.9688 161.57 92.7198C160.725 92.0578 160.463 90.6968 160.197 89.6898C160.098 89.3188 159.557 89.4768 159.629 89.8468V89.8448ZM155.481 100.464L154.965 99.4758C154.889 99.3566 154.845 99.2199 154.837 99.0788C154.837 98.7868 155.128 98.5848 155.383 98.4488C158.501 96.7186 161.818 95.3735 165.261 94.4428C165.419 94.3796 165.593 94.3736 165.755 94.4258C165.935 94.5068 166.017 94.7118 166.103 94.8918C166.434 95.5818 167.091 96.2918 166.78 96.9968C166.603 97.3138 166.332 97.5681 166.004 97.7248C163.193 99.4249 160.161 100.731 156.995 101.607C156.822 101.667 156.637 101.69 156.455 101.674C156.3 101.645 156.16 101.563 156.059 101.442C155.959 101.32 155.904 101.167 155.904 101.01" fill="#4B5662"/>
<path d="M155.744 100.312C155.497 99.7219 155.25 99.2249 155.798 98.7119C156.139 98.3949 156.767 98.1949 157.181 97.9879C158.077 97.5429 158.988 97.1279 159.913 96.7409C160.807 96.3722 161.713 96.0337 162.629 95.7259C163.123 95.5579 163.617 95.3999 164.111 95.2519C164.407 95.1619 165.146 94.7969 165.398 94.8879C165.65 94.9799 166.01 95.5599 166.089 95.8219C166.484 97.0959 165.719 97.3429 164.995 97.7529C164.084 98.2675 163.152 98.7439 162.202 99.1809C161.708 99.4029 156.621 101.638 156.423 100.865C156.248 100.178 155.226 100.47 155.369 101.156C155.616 102.334 156.604 102.278 157.559 101.996C159.175 101.509 160.756 100.915 162.293 100.218C163.706 99.5829 165.487 98.8919 166.657 97.8569C167.68 96.9529 167.277 96.0289 166.704 94.9869C166.032 93.7699 165.585 93.8389 164.289 94.2219C162.684 94.6971 161.108 95.2627 159.567 95.9159C158.07 96.5479 156.374 97.1999 155.04 98.1379C153.976 98.8919 154.67 99.7089 155.223 100.608C155.433 100.946 155.892 100.65 155.744 100.302V100.312Z" fill="#4B5662"/>
<path d="M156.395 99.6238C154.44 100.233 152.567 101.083 150.821 102.153C149.34 103.052 147.917 104.183 147.258 105.776C146.63 107.29 146.793 109.004 147.073 110.617C147.771 114.652 148.307 116.581 150.048 120.288C151.123 122.567 152.217 124.879 151.757 127.45C151.31 129.956 151.244 132.112 154.116 133.088C156.484 133.893 159.549 133.544 162.019 133.488C166.134 133.413 170.233 132.947 174.26 132.095C177.834 131.327 181.637 130.554 184.482 128.089C188.488 124.614 184.591 119.779 183.613 115.87C182.594 111.852 181.583 107.832 180.58 103.81C179.748 100.479 179.254 96.6488 176.014 94.7168C172.937 92.8798 168.951 94.0228 165.799 95.7318" fill="#222B3D"/>
<path d="M156.317 99.3342C152.86 100.24 148.167 101.996 146.7 105.626C145.903 107.614 146.325 109.805 146.7 111.837C147.021 113.713 147.508 115.557 148.155 117.347C148.94 119.434 150.079 121.382 150.78 123.496C151.212 124.716 151.353 126.019 151.193 127.302C151.046 128.085 150.964 128.879 150.946 129.675C151.042 133.464 154.897 134.167 158.016 134.19C162.721 134.247 167.421 133.885 172.061 133.108C176.143 132.402 180.729 131.626 184.13 129.095C185.458 128.107 186.493 126.872 186.745 125.19C186.992 123.476 186.449 121.758 185.834 120.182C185.093 118.305 184.352 116.52 183.858 114.559C183.239 112.085 182.624 109.61 182.013 107.133C181.438 104.824 180.944 102.48 180.299 100.188C179.791 98.3832 179.047 96.5802 177.679 95.2492C174.256 91.9272 169.248 93.2262 165.499 95.2122C164.817 95.5722 165.422 96.6072 166.102 96.2442C169.458 94.4612 174.093 93.1372 177.076 96.3262C179.299 98.7062 179.662 102.552 180.42 105.587C180.944 107.673 181.467 109.76 181.989 111.847C182.465 113.754 182.841 115.722 183.53 117.567C184.537 120.254 186.836 123.896 184.955 126.687C182.845 129.818 178.077 130.675 174.661 131.414C170.37 132.309 166.006 132.813 161.624 132.92C159.051 133.007 152.941 133.975 152.176 130.451C151.847 128.939 152.489 127.418 152.422 125.902C152.339 124.027 151.6 122.286 150.822 120.607C149.116 116.927 147.733 113.07 147.424 108.987C147.239 106.518 148.182 104.673 150.158 103.243C152.115 101.87 154.24 100.753 156.48 99.9192C156.551 99.8928 156.609 99.8409 156.643 99.7737C156.678 99.7064 156.686 99.6288 156.666 99.556C156.645 99.4832 156.599 99.4206 156.535 99.3805C156.471 99.3403 156.394 99.3256 156.32 99.3392L156.317 99.3342ZM143.704 223.507C144.275 223.441 145.312 223.063 145.841 223.339L146.181 223.848C146.158 223.957 146.112 224.059 146.047 224.149C145.982 224.239 145.899 224.314 145.804 224.37C145.708 224.426 145.602 224.462 145.492 224.475C145.382 224.488 145.27 224.478 145.164 224.446C144.758 224.463 144.351 224.44 143.949 224.377L144.322 225.278C145.045 225.49 145.218 225.802 144.845 226.209C144.722 226.652 144.404 226.766 143.892 226.552L144.082 227.273C143.813 227.676 143.912 227.965 143.742 228.39C143.524 228.933 144.389 229.266 144.67 228.782C144.87 228.464 144.964 228.09 144.937 227.715C144.911 227.34 144.765 226.983 144.522 226.696C144.095 226.231 143.534 226.219 143.171 226.742C143.102 226.863 143.083 227.007 143.118 227.142C143.154 227.277 143.241 227.393 143.361 227.464C144.579 227.987 146.098 227.357 146.078 225.878C146.078 224.562 144.64 223.613 143.569 224.532C143.188 224.856 143.529 225.396 143.942 225.431C145.332 225.555 147.532 225.367 146.992 223.423C146.594 221.998 144.537 222.51 143.546 222.944C143.49 222.979 143.447 223.03 143.423 223.091C143.398 223.152 143.394 223.219 143.411 223.282C143.428 223.345 143.465 223.402 143.517 223.442C143.568 223.483 143.632 223.506 143.697 223.507H143.704ZM203.399 218.736C202.483 218.907 201.33 219.43 201.54 220.566C201.705 221.478 202.636 221.646 203.417 221.525C203.592 221.5 204.898 221.095 204.424 222.041C204.375 222.134 203.891 222.211 203.757 222.288C203.34 222.498 202.898 222.861 202.809 223.35C202.779 223.51 202.789 223.676 202.84 223.831C202.891 223.986 202.98 224.125 203.1 224.236C203.473 224.574 204.229 224.32 204.516 224.651C204.864 225.056 205.412 224.54 205.212 224.113C205.161 223.995 205.087 223.887 204.994 223.798C204.901 223.708 204.791 223.638 204.671 223.592C204.276 223.431 203.794 223.508 204.476 223.078C205.056 222.712 205.676 222.673 205.76 221.843C205.789 221.558 205.721 221.271 205.566 221.03C205.411 220.789 205.179 220.607 204.908 220.514C204.525 220.414 204.123 220.414 203.74 220.514C203.538 220.551 203.226 220.7 203.026 220.663C201.621 220.393 203.142 219.512 203.572 219.381C203.652 219.355 203.719 219.299 203.759 219.225C203.799 219.151 203.809 219.064 203.787 218.983C203.765 218.902 203.712 218.832 203.64 218.788C203.567 218.745 203.481 218.731 203.399 218.749V218.736ZM156.161 136.387C155.245 138.408 153.692 139.642 151.669 140.462C151.089 140.709 151.296 141.613 151.936 141.43C154.203 140.786 155.954 138.785 156.687 136.61C156.791 136.303 156.297 136.089 156.161 136.387ZM177.493 134.298C176.483 135.039 177.854 137.029 178.4 137.718C179.585 139.157 181.173 140.208 182.959 140.739C183.487 140.889 183.848 140.094 183.339 139.832C182.181 139.235 180.99 138.8 179.983 137.938C179.505 137.529 179.081 137.061 178.721 136.545C178.496 136.224 177.753 135.115 177.923 134.728C178.034 134.481 177.777 134.088 177.493 134.298Z" fill="#D1D7FF"/>
<path d="M155.86 101.369C159.599 101.714 163.54 100.087 165.691 96.9228C165.911 96.5998 165.402 96.2028 165.145 96.5028C162.779 99.2888 159.574 100.949 155.86 100.768C155.474 100.749 155.487 101.324 155.86 101.356V101.369Z" fill="#D1D7FF"/>
<path d="M166.176 95.0759C170.184 92.967 173.963 90.4485 177.452 87.5609C179.371 85.9729 181.28 84.1509 181.974 81.7569C182.648 79.4279 182.06 76.9409 181.48 74.5949L179.097 65.0449C178.519 62.7359 178.094 59.8939 179.889 58.3279C179.087 58.0439 178.929 56.8879 179.378 56.1679C179.828 55.4459 180.65 55.0629 181.428 54.7179C182.549 54.2239 183.735 53.7149 184.955 53.8259C186.175 53.9369 187.424 54.9129 187.355 56.1379C188.81 56.0019 189.862 57.4459 190.593 58.7129L193.556 63.8579C197.103 70.0069 200.772 76.7339 199.886 83.7779C199.11 89.9309 194.929 95.1379 190.193 99.1479C185.456 103.159 180.028 106.293 175.427 110.451" fill="#222B3D"/>
<path d="M166.333 95.3479C169.983 93.538 173.444 91.3689 176.664 88.8729C179.212 86.8969 182.005 84.5709 182.662 81.2459C183.403 77.4679 181.726 73.2899 180.822 69.6659C180.328 67.7399 179.793 65.8209 179.4 63.8759C179.044 62.1149 178.874 60.0749 180.279 58.7239C180.339 58.6624 180.385 58.588 180.412 58.5064C180.439 58.4248 180.448 58.3381 180.437 58.2528C180.426 58.1674 180.396 58.0857 180.349 58.0137C180.302 57.9416 180.239 57.8812 180.165 57.8369C179.057 57.2669 180.077 56.0769 180.714 55.6909C181.35 55.3261 182.019 55.0218 182.712 54.7819C184.067 54.2879 186.68 54.0119 186.779 56.1329C186.782 56.2826 186.843 56.4253 186.949 56.5311C187.055 56.637 187.197 56.6978 187.347 56.7009C189.434 56.6759 190.597 59.8699 191.461 61.3709C192.615 63.3709 193.785 65.3619 194.887 67.3919C197.065 71.3999 199.085 75.7339 199.394 80.3499C199.996 89.2179 193.546 96.0199 186.932 100.959C182.924 103.95 178.691 106.639 174.913 109.938C174.221 110.541 175.243 111.573 175.925 110.948C182.892 104.555 191.936 100.346 197.228 92.2309C199.618 88.5639 200.903 84.3139 200.508 79.9229C200.088 75.2499 198.087 70.8889 195.872 66.8139C194.516 64.3169 193.064 61.8749 191.647 59.4049C190.678 57.7259 189.58 55.5329 187.347 55.5599L187.915 56.1279C187.89 55.5655 187.703 55.0222 187.377 54.5635C187.05 54.1049 186.598 53.7504 186.075 53.5429C184.705 52.9349 183.208 53.3499 181.892 53.8959C180.706 54.3899 179.175 54.9459 178.698 56.2619C178.509 56.7219 178.496 57.2355 178.661 57.7046C178.827 58.1737 179.159 58.5654 179.595 58.8049L179.481 57.9189C177.35 59.9689 178.029 63.1049 178.664 65.6629C179.178 67.7329 179.695 69.8019 180.215 71.8699C180.753 74.0159 181.45 76.1959 181.657 78.4039C182.074 82.7339 179.294 85.3779 176.199 87.8939C173.002 90.478 169.596 92.7913 166.015 94.8099C165.661 95.0119 165.973 95.5299 166.333 95.3529V95.3479ZM147.873 104.566C146.841 108.523 146.851 112.681 147.903 116.633C148.056 117.216 148.96 116.969 148.807 116.386C147.824 112.575 147.708 108.593 148.468 104.732C148.543 104.346 147.975 104.181 147.873 104.569V104.566Z" fill="#D1D7FF"/>
<path d="M178.153 108.986C179.141 108.166 180.249 107.647 181.363 107.047C181.768 106.83 181.492 106.143 181.047 106.306C179.773 106.738 178.669 107.645 177.738 108.59C177.474 108.86 177.866 109.232 178.148 108.998L178.153 108.986ZM208.477 54.335C207.166 50.052 205.879 45.76 204.514 41.493C203.526 38.379 202.242 35.457 201.009 32.437C199.883 29.678 198.515 26.307 199.221 23.28C200.007 19.916 203.59 18.303 206.63 17.552C209.493 16.8196 212.442 16.4798 215.397 16.542C218.319 16.649 220.892 17.804 221.969 20.689C222.71 22.684 223.09 24.887 223.614 26.942L225.305 33.61C226.433 38.065 227.569 42.518 228.713 46.968C229.017 48.146 229.484 49.388 229.521 50.613C229.56 51.969 228.696 52.991 227.688 53.789C225.977 55.145 223.866 56.103 221.796 56.752C218.58 57.7741 215.171 58.0437 211.834 57.54C211.135 57.43 207.406 56.8 208.764 55.39C209.31 54.824 208.453 53.962 207.9 54.525C206.697 55.745 207.512 57.425 208.887 58.071C210.651 58.899 213.004 59.015 214.923 59.034C219.357 59.0956 223.714 57.8652 227.461 55.493C228.983 54.505 230.533 53.164 230.761 51.253C230.892 50.171 230.575 49.104 230.311 48.064L229.279 44.009C227.929 38.679 226.585 33.349 225.248 28.019C224.621 25.529 224.15 22.921 223.307 20.496C222.852 19.0674 221.985 17.8048 220.816 16.866C218.299 14.927 214.822 15.056 211.829 15.384C208.371 15.75 204.667 16.212 201.674 18.101C198.681 19.99 197.401 22.966 197.888 26.428C198.471 30.572 200.678 34.238 202.239 38.053C204.427 43.399 206.018 49.035 207.919 54.488C208.04 54.834 208.586 54.693 208.477 54.335Z" fill="#D1D7FF"/>
<path d="M200.369 22.8698C200.616 24.2918 202.928 23.8328 203.869 23.7938C205.976 23.7018 208.077 23.5123 210.166 23.2258C212.189 22.9538 214.271 22.6868 216.229 22.0948C217.318 21.7638 219.44 21.1338 219.531 19.7648C219.532 19.6682 219.508 19.5729 219.459 19.4891C219.411 19.4054 219.341 19.3362 219.257 19.2888L219.124 19.2218C218.486 18.9158 217.926 19.8598 218.565 20.1778L218.696 20.2448L218.422 19.7648C218.398 20.0788 217.113 20.5808 216.891 20.6798C216.218 20.9648 215.523 21.1938 214.812 21.3638C213.434 21.7138 212.026 21.9708 210.613 22.2108C209.003 22.4868 207.386 22.7048 205.763 22.8748C205.067 22.9488 201.128 23.7368 200.913 22.7148C200.836 22.3488 200.298 22.5088 200.357 22.8698H200.369Z" fill="#8DAAE2"/>
<path d="M206.83 39.8668C207.571 40.1908 208.334 42.1068 207.868 42.8308C207.67 43.1368 207.927 43.6608 208.32 43.6138C210.364 43.3668 208.527 39.5118 207.085 39.2938C206.764 39.2448 206.472 39.7218 206.838 39.8798L206.83 39.8668ZM156.047 97.9948C155.857 98.4888 156.047 98.8218 156.203 99.3008C156.392 99.9319 156.535 100.576 156.63 101.228C156.657 101.391 156.907 101.324 156.877 101.161C156.792 100.663 156.686 100.168 156.561 99.6788C156.415 99.1528 156.035 98.5828 156.225 98.0368C156.265 97.9258 156.089 97.8808 156.047 97.9898V97.9948ZM158.201 96.9158C158.139 97.5008 158.48 97.9028 158.764 98.3968C159.148 99.0598 159.445 99.7678 159.648 100.506C159.662 100.533 159.684 100.554 159.712 100.566C159.74 100.578 159.771 100.581 159.8 100.573C159.829 100.564 159.854 100.546 159.871 100.521C159.889 100.497 159.897 100.467 159.895 100.437C159.746 99.916 159.552 99.4088 159.317 98.9208C159.023 98.3178 158.349 97.6288 158.393 96.9258C158.393 96.7998 158.208 96.8018 158.196 96.9258L158.201 96.9158ZM160.77 95.8828C161.101 96.0018 161.217 96.4908 161.348 96.7768C161.483 97.0366 161.64 97.2844 161.817 97.5178C162.124 98.0338 162.392 98.5728 162.617 99.1308C162.684 99.2788 162.903 99.1508 162.834 99.0048C162.497 98.2848 162.116 97.5848 161.693 96.9108C161.414 96.4578 161.39 95.8658 160.826 95.6758C160.698 95.6338 160.644 95.8338 160.77 95.8778V95.8828ZM163.827 94.5368C164.568 94.6808 164.924 95.9668 165.087 96.5798C165.101 96.6066 165.123 96.6277 165.151 96.6398C165.178 96.6518 165.209 96.6539 165.238 96.6458C165.298 96.6288 165.338 96.5728 165.334 96.5108C165.201 96.0094 164.995 95.53 164.724 95.0878C164.519 94.7548 164.284 94.4208 163.872 94.3478C163.756 94.3278 163.701 94.5028 163.822 94.5278L163.827 94.5368ZM166.526 94.6208C166.366 94.8288 166.218 95.0428 166.069 95.2578C165.978 95.3918 166.2 95.5248 166.287 95.3868C166.42 95.1718 166.554 94.9588 166.675 94.7348C166.724 94.6448 166.596 94.5348 166.526 94.6208ZM197.917 10.2678C192.469 5.48179 185.719 2.4218 178.624 1.0458C171.336 -0.379205 163.258 -0.394205 156.257 2.3078C150.006 4.7208 144.274 9.7758 142.798 16.5448C142.057 19.9108 142.464 23.6308 144.672 26.3868C146.574 28.7598 149.688 30.2868 152.748 29.5968C155.556 28.9668 158.023 26.4858 158.181 23.5388C158.366 20.0818 155.553 17.2568 153.195 15.1128C150.402 12.5768 147.144 10.2228 143.581 8.91879C139.95 7.59079 136.293 8.14579 132.825 9.67879C129.457 11.1618 126.012 13.1868 123.251 15.6388C120.719 17.8888 118.709 21.0718 118.783 24.5668C118.845 27.5468 120.623 30.3328 123.476 31.3798C126.328 32.4268 129.19 31.0418 130.613 28.4808C133.806 22.7268 129.24 16.1108 123.74 14.0358C116.361 11.2528 108.559 15.1428 102.726 19.5158C101.229 20.6505 99.7591 21.8208 98.318 23.0258C97.715 23.5198 98.565 24.3618 99.172 23.8798C104.358 19.7018 109.932 15.1718 116.83 14.4958C122.542 13.9328 129.249 16.9058 130.227 23.1588C130.64 25.8018 129.541 29.1678 126.787 30.0958C123.945 31.0558 121.045 28.5948 120.458 25.8978C118.996 19.2298 126.402 14.7848 131.27 12.1498C134.26 10.5238 137.634 9.1608 141.099 9.7908C144.43 10.3988 147.52 12.4408 150.15 14.4828C152.476 16.2988 155.365 18.6328 156.385 21.5068C157.432 24.4478 155.472 27.3988 152.54 28.1448C149.609 28.8908 146.663 27.0558 145.176 24.6238C143.422 21.7558 143.59 18.1238 144.662 15.0488C146.638 9.38379 151.703 5.2618 157.203 3.2338C163.989 0.732795 171.729 0.739795 178.77 2.0758C185.603 3.3748 192.123 6.2178 197.435 10.7458C197.773 11.0358 198.262 10.5538 197.929 10.2528L197.917 10.2678Z" fill="#D1D7FF"/>
</g>
</g>
</g>
<defs>
<clipPath id="clip0_26_1285">
<rect width="231" height="236" fill="white"/>
</clipPath>
<clipPath id="clip1_26_1285">
<rect width="231" height="236" fill="white"/>
</clipPath>
<clipPath id="clip2_26_1285">
<rect width="231" height="236" fill="white"/>
</clipPath>
</defs>
</svg>
