<svg width="29" height="29" viewBox="0 0 29 29" fill="none" xmlns="http://www.w3.org/2000/svg">
<path fill-rule="evenodd" clip-rule="evenodd" d="M9.08496 7.06494H17.401C18.4442 7.06649 19.4443 7.48201 20.1814 8.22027C20.9186 8.95853 21.3326 9.95916 21.3326 11.0024V21.9399C22.2609 21.9399 23.1511 21.5712 23.8075 20.9148C24.4639 20.2584 24.8326 19.3682 24.8326 18.4399V7.19094C24.8326 5.43511 23.5201 3.91144 21.7246 3.76094C21.463 3.73969 21.2013 3.72025 20.9395 3.70261C20.6441 3.13361 20.1982 2.65665 19.6503 2.32377C19.1025 1.99089 18.4737 1.81488 17.8326 1.81494H16.0826C15.4416 1.81488 14.8128 1.99089 14.2649 2.32377C13.717 2.65665 13.2711 3.13361 12.9758 3.70261C12.7133 3.72011 12.4508 3.73994 12.1906 3.76094C10.4383 3.90911 9.14563 5.36394 9.08496 7.06494ZM16.0826 3.56494C15.6185 3.56494 15.1734 3.74932 14.8452 4.0775C14.517 4.40569 14.3326 4.85081 14.3326 5.31494H19.5826C19.5826 4.85081 19.3983 4.40569 19.0701 4.0775C18.7419 3.74932 18.2968 3.56494 17.8326 3.56494H16.0826Z" fill="black"/>
<path fill-rule="evenodd" clip-rule="evenodd" d="M3.83301 11.0024C3.83301 9.79377 4.81301 8.81494 6.02051 8.81494H17.3955C18.6042 8.81494 19.583 9.79494 19.583 11.0024V24.1274C19.583 25.3349 18.603 26.3149 17.3955 26.3149H6.02051C5.44035 26.3149 4.88395 26.0845 4.47371 25.6742C4.06348 25.264 3.83301 24.7076 3.83301 24.1274V11.0024ZM15.0167 16.3621C15.1618 16.1808 15.2289 15.9492 15.2033 15.7184C15.1777 15.4876 15.0615 15.2764 14.8802 15.1313C14.6989 14.9862 14.4673 14.919 14.2365 14.9446C14.0057 14.9702 13.7945 15.0865 13.6493 15.2678L10.7607 18.8798L9.70134 17.8216C9.53547 17.667 9.31608 17.5829 9.0894 17.5869C8.86271 17.5909 8.64643 17.6827 8.48612 17.843C8.3258 18.0034 8.23397 18.2196 8.22997 18.4463C8.22597 18.673 8.31011 18.8924 8.46467 19.0583L10.2147 20.8083C10.3017 20.8953 10.4061 20.963 10.5211 21.0069C10.636 21.0508 10.759 21.0699 10.8818 21.0631C11.0047 21.0563 11.1248 21.0236 11.2342 20.9672C11.3435 20.9109 11.4398 20.8321 11.5167 20.7359L15.0167 16.3621Z" fill="black"/>
</svg>
