<svg width="22" height="28" viewBox="0 0 22 28" fill="none" xmlns="http://www.w3.org/2000/svg">
<path d="M10.5469 7.60938C13.5 7.60938 15.9375 10.0469 15.9375 13C15.9375 16 13.5 18.3906 10.5469 18.3906C7.54688 18.3906 5.15625 16 5.15625 13C5.15625 10.0469 7.54688 7.60938 10.5469 7.60938ZM10.5469 16.5156C12.4688 16.5156 14.0156 14.9688 14.0156 13C14.0156 11.0781 12.4688 9.53125 10.5469 9.53125C8.57812 9.53125 7.03125 11.0781 7.03125 13C7.03125 14.9688 8.625 16.5156 10.5469 16.5156ZM17.3906 7.42188C17.3906 8.125 16.8281 8.6875 16.125 8.6875C15.4219 8.6875 14.8594 8.125 14.8594 7.42188C14.8594 6.71875 15.4219 6.15625 16.125 6.15625C16.8281 6.15625 17.3906 6.71875 17.3906 7.42188ZM20.9531 8.6875C21.0469 10.4219 21.0469 15.625 20.9531 17.3594C20.8594 19.0469 20.4844 20.5 19.2656 21.7656C18.0469 22.9844 16.5469 23.3594 14.8594 23.4531C13.125 23.5469 7.92188 23.5469 6.1875 23.4531C4.5 23.3594 3.04688 22.9844 1.78125 21.7656C0.5625 20.5 0.1875 19.0469 0.09375 17.3594C0 15.625 0 10.4219 0.09375 8.6875C0.1875 7 0.5625 5.5 1.78125 4.28125C3.04688 3.0625 4.5 2.6875 6.1875 2.59375C7.92188 2.5 13.125 2.5 14.8594 2.59375C16.5469 2.6875 18.0469 3.0625 19.2656 4.28125C20.4844 5.5 20.8594 7 20.9531 8.6875ZM18.7031 19.1875C19.2656 17.8281 19.125 14.5469 19.125 13C19.125 11.5 19.2656 8.21875 18.7031 6.8125C18.3281 5.92188 17.625 5.17188 16.7344 4.84375C15.3281 4.28125 12.0469 4.42188 10.5469 4.42188C9 4.42188 5.71875 4.28125 4.35938 4.84375C3.42188 5.21875 2.71875 5.92188 2.34375 6.8125C1.78125 8.21875 1.92188 11.5 1.92188 13C1.92188 14.5469 1.78125 17.8281 2.34375 19.1875C2.71875 20.125 3.42188 20.8281 4.35938 21.2031C5.71875 21.7656 9 21.625 10.5469 21.625C12.0469 21.625 15.3281 21.7656 16.7344 21.2031C17.625 20.8281 18.375 20.125 18.7031 19.1875Z" fill="#E1306C"/>
</svg>
