<svg width="21" height="28" viewBox="0 0 21 28" fill="none" xmlns="http://www.w3.org/2000/svg">
<path d="M19.5 2.5C20.2969 2.5 21 3.20312 21 4.04688V22C21 22.8438 20.2969 23.5 19.5 23.5H1.45312C0.65625 23.5 0 22.8438 0 22V4.04688C0 3.20312 0.65625 2.5 1.45312 2.5H19.5ZM6.32812 20.5V10.5156H3.23438V20.5H6.32812ZM4.78125 9.10938C5.76562 9.10938 6.5625 8.3125 6.5625 7.32812C6.5625 6.34375 5.76562 5.5 4.78125 5.5C3.75 5.5 2.95312 6.34375 2.95312 7.32812C2.95312 8.3125 3.75 9.10938 4.78125 9.10938ZM18 20.5V15.0156C18 12.3438 17.3906 10.2344 14.25 10.2344C12.75 10.2344 11.7188 11.0781 11.2969 11.875H11.25V10.5156H8.29688V20.5H11.3906V15.5781C11.3906 14.2656 11.625 13 13.2656 13C14.8594 13 14.8594 14.5 14.8594 15.625V20.5H18Z" fill="#0077B5"/>
</svg>
