<svg width="83" height="15" viewBox="0 0 83 15" fill="none" xmlns="http://www.w3.org/2000/svg">
<g clip-path="url(#clip0_26_1664)">
<path d="M13.7279 6.72943L11.0912 9.00463L11.8945 12.4072C11.9388 12.5919 11.9274 12.7856 11.8617 12.9638C11.796 13.142 11.679 13.2968 11.5253 13.4085C11.3717 13.5202 11.1885 13.5839 10.9987 13.5916C10.8089 13.5992 10.6211 13.5504 10.459 13.4513L7.49999 11.6302L4.53925 13.4513C4.3772 13.5498 4.18963 13.5981 4.00015 13.5902C3.81068 13.5823 3.62778 13.5186 3.47449 13.4069C3.32119 13.2953 3.20436 13.1408 3.13869 12.9629C3.07302 12.785 3.06146 12.5916 3.10546 12.4072L3.91171 9.00463L1.27499 6.72943C1.13161 6.60552 1.02792 6.4421 0.976859 6.2596C0.925799 6.0771 0.929637 5.8836 0.987893 5.70326C1.04615 5.52293 1.15624 5.36376 1.30443 5.24562C1.45261 5.12748 1.63231 5.05562 1.82109 5.03901L5.27812 4.7601L6.61171 1.53276C6.6839 1.35687 6.80675 1.20642 6.96466 1.10053C7.12257 0.994647 7.3084 0.93811 7.49853 0.93811C7.68865 0.93811 7.87448 0.994647 8.03239 1.10053C8.1903 1.20642 8.31316 1.35687 8.38535 1.53276L9.71835 4.7601L13.1754 5.03901C13.3645 5.055 13.5448 5.12647 13.6935 5.24444C13.8422 5.36241 13.9528 5.52165 14.0114 5.7022C14.07 5.88275 14.0741 6.07659 14.023 6.25942C13.972 6.44226 13.8681 6.60596 13.7244 6.73002L13.7279 6.72943Z" fill="#141414"/>
<path d="M30.7279 6.72943L28.0912 9.00463L28.8945 12.4072C28.9388 12.5919 28.9274 12.7856 28.8617 12.9638C28.796 13.142 28.679 13.2968 28.5253 13.4085C28.3717 13.5202 28.1885 13.5839 27.9987 13.5916C27.8089 13.5992 27.6211 13.5504 27.459 13.4513L24.5 11.6302L21.5393 13.4513C21.3772 13.5498 21.1896 13.5981 21.0002 13.5902C20.8107 13.5823 20.6278 13.5186 20.4745 13.4069C20.3212 13.2953 20.2044 13.1408 20.1387 12.9629C20.073 12.785 20.0615 12.5916 20.1055 12.4072L20.9117 9.00463L18.275 6.72943C18.1316 6.60552 18.0279 6.4421 17.9769 6.2596C17.9258 6.0771 17.9296 5.8836 17.9879 5.70326C18.0462 5.52293 18.1562 5.36376 18.3044 5.24562C18.4526 5.12748 18.6323 5.05562 18.8211 5.03901L22.2781 4.7601L23.6117 1.53276C23.6839 1.35687 23.8068 1.20642 23.9647 1.10053C24.1226 0.994647 24.3084 0.93811 24.4985 0.93811C24.6887 0.93811 24.8745 0.994647 25.0324 1.10053C25.1903 1.20642 25.3132 1.35687 25.3853 1.53276L26.7184 4.7601L30.1754 5.03901C30.3645 5.055 30.5448 5.12647 30.6935 5.24444C30.8422 5.36241 30.9528 5.52165 31.0114 5.7022C31.07 5.88275 31.0741 6.07659 31.023 6.25942C30.972 6.44226 30.8681 6.60596 30.7244 6.73002L30.7279 6.72943Z" fill="#141414"/>
<path d="M47.7279 6.72943L45.0912 9.00463L45.8945 12.4072C45.9388 12.5919 45.9274 12.7856 45.8617 12.9638C45.796 13.142 45.679 13.2968 45.5253 13.4085C45.3717 13.5202 45.1885 13.5839 44.9987 13.5916C44.8089 13.5992 44.6211 13.5504 44.459 13.4513L41.5 11.6302L38.5393 13.4513C38.3772 13.5498 38.1896 13.5981 38.0002 13.5902C37.8107 13.5823 37.6278 13.5186 37.4745 13.4069C37.3212 13.2953 37.2044 13.1408 37.1387 12.9629C37.073 12.785 37.0615 12.5916 37.1055 12.4072L37.9117 9.00463L35.275 6.72943C35.1316 6.60552 35.0279 6.4421 34.9769 6.2596C34.9258 6.0771 34.9296 5.8836 34.9879 5.70326C35.0462 5.52293 35.1562 5.36376 35.3044 5.24562C35.4526 5.12748 35.6323 5.05562 35.8211 5.03901L39.2781 4.7601L40.6117 1.53276C40.6839 1.35687 40.8068 1.20642 40.9647 1.10053C41.1226 0.994647 41.3084 0.93811 41.4985 0.93811C41.6887 0.93811 41.8745 0.994647 42.0324 1.10053C42.1903 1.20642 42.3132 1.35687 42.3853 1.53276L43.7184 4.7601L47.1754 5.03901C47.3645 5.055 47.5448 5.12647 47.6935 5.24444C47.8422 5.36241 47.9528 5.52165 48.0114 5.7022C48.07 5.88275 48.0741 6.07659 48.023 6.25942C47.972 6.44226 47.8681 6.60596 47.7244 6.73002L47.7279 6.72943Z" fill="#141414"/>
<path d="M64.7279 6.72943L62.0912 9.00463L62.8945 12.4072C62.9388 12.5919 62.9274 12.7856 62.8617 12.9638C62.796 13.142 62.679 13.2968 62.5253 13.4085C62.3717 13.5202 62.1885 13.5839 61.9987 13.5916C61.8089 13.5992 61.6211 13.5504 61.459 13.4513L58.5 11.6302L55.5393 13.4513C55.3772 13.5498 55.1896 13.5981 55.0002 13.5902C54.8107 13.5823 54.6278 13.5186 54.4745 13.4069C54.3212 13.2953 54.2044 13.1408 54.1387 12.9629C54.073 12.785 54.0615 12.5916 54.1055 12.4072L54.9117 9.00463L52.275 6.72943C52.1316 6.60552 52.0279 6.4421 51.9769 6.2596C51.9258 6.0771 51.9296 5.8836 51.9879 5.70326C52.0462 5.52293 52.1562 5.36376 52.3044 5.24562C52.4526 5.12748 52.6323 5.05562 52.8211 5.03901L56.2781 4.7601L57.6117 1.53276C57.6839 1.35687 57.8068 1.20642 57.9647 1.10053C58.1226 0.994647 58.3084 0.93811 58.4985 0.93811C58.6887 0.93811 58.8745 0.994647 59.0324 1.10053C59.1903 1.20642 59.3132 1.35687 59.3853 1.53276L60.7184 4.7601L64.1754 5.03901C64.3645 5.055 64.5448 5.12647 64.6935 5.24444C64.8422 5.36241 64.9528 5.52165 65.0114 5.7022C65.07 5.88275 65.0741 6.07659 65.023 6.25942C64.972 6.44226 64.8681 6.60596 64.7244 6.73002L64.7279 6.72943Z" fill="#141414"/>
<path d="M81.7279 6.72943L79.0912 9.00463L79.8945 12.4072C79.9388 12.5919 79.9274 12.7856 79.8617 12.9638C79.796 13.142 79.679 13.2968 79.5253 13.4085C79.3717 13.5202 79.1885 13.5839 78.9987 13.5916C78.8089 13.5992 78.6211 13.5504 78.459 13.4513L75.5 11.6302L72.5393 13.4513C72.3772 13.5498 72.1896 13.5981 72.0002 13.5902C71.8107 13.5823 71.6278 13.5186 71.4745 13.4069C71.3212 13.2953 71.2044 13.1408 71.1387 12.9629C71.073 12.785 71.0615 12.5916 71.1055 12.4072L71.9117 9.00463L69.275 6.72943C69.1316 6.60552 69.0279 6.4421 68.9769 6.2596C68.9258 6.0771 68.9296 5.8836 68.9879 5.70326C69.0462 5.52293 69.1562 5.36376 69.3044 5.24562C69.4526 5.12748 69.6323 5.05562 69.8211 5.03901L73.2781 4.7601L74.6117 1.53276C74.6839 1.35687 74.8068 1.20642 74.9647 1.10053C75.1226 0.994647 75.3084 0.93811 75.4985 0.93811C75.6887 0.93811 75.8745 0.994647 76.0324 1.10053C76.1903 1.20642 76.3132 1.35687 76.3853 1.53276L77.7184 4.7601L81.1754 5.03901C81.3645 5.055 81.5448 5.12647 81.6935 5.24444C81.8422 5.36241 81.9528 5.52165 82.0114 5.7022C82.07 5.88275 82.0741 6.07659 82.023 6.25942C81.972 6.44226 81.8681 6.60596 81.7244 6.73002L81.7279 6.72943Z" fill="#141414"/>
</g>
<defs>
<clipPath id="clip0_26_1664">
<rect width="83" height="15" fill="white"/>
</clipPath>
</defs>
</svg>
