<svg width="28" height="29" viewBox="0 0 28 29" fill="none" xmlns="http://www.w3.org/2000/svg">
<path fill-rule="evenodd" clip-rule="evenodd" d="M6.5625 1.81494H10.5C11.6603 1.81494 12.7731 2.27588 13.5936 3.09635C14.4141 3.91682 14.875 5.02962 14.875 6.18994V8.37744C14.875 9.58611 15.855 10.5649 17.0625 10.5649H19.25C20.4103 10.5649 21.5231 11.0259 22.3436 11.8463C23.1641 12.6668 23.625 13.7796 23.625 14.9399V24.1274C23.625 25.3349 22.645 26.3149 21.4375 26.3149H6.5625C5.98234 26.3149 5.42594 26.0845 5.0157 25.6742C4.60547 25.264 4.375 24.7076 4.375 24.1274V4.00244C4.375 2.79377 5.355 1.81494 6.5625 1.81494ZM11.375 20.1899C11.375 19.9579 11.2828 19.7353 11.1187 19.5712C10.9546 19.4071 10.7321 19.3149 10.5 19.3149C10.2679 19.3149 10.0454 19.4071 9.88128 19.5712C9.71719 19.7353 9.625 19.9579 9.625 20.1899V21.0649C9.625 21.297 9.71719 21.5196 9.88128 21.6837C10.0454 21.8478 10.2679 21.9399 10.5 21.9399C10.7321 21.9399 10.9546 21.8478 11.1187 21.6837C11.2828 21.5196 11.375 21.297 11.375 21.0649V20.1899ZM14 16.6899C14.2321 16.6899 14.4546 16.7821 14.6187 16.9462C14.7828 17.1103 14.875 17.3329 14.875 17.5649V21.0649C14.875 21.297 14.7828 21.5196 14.6187 21.6837C14.4546 21.8478 14.2321 21.9399 14 21.9399C13.7679 21.9399 13.5454 21.8478 13.3813 21.6837C13.2172 21.5196 13.125 21.297 13.125 21.0649V17.5649C13.125 17.3329 13.2172 17.1103 13.3813 16.9462C13.5454 16.7821 13.7679 16.6899 14 16.6899ZM18.375 14.9399C18.375 14.7079 18.2828 14.4853 18.1187 14.3212C17.9546 14.1571 17.7321 14.0649 17.5 14.0649C17.2679 14.0649 17.0454 14.1571 16.8813 14.3212C16.7172 14.4853 16.625 14.7079 16.625 14.9399V21.0649C16.625 21.297 16.7172 21.5196 16.8813 21.6837C17.0454 21.8478 17.2679 21.9399 17.5 21.9399C17.7321 21.9399 17.9546 21.8478 18.1187 21.6837C18.2828 21.5196 18.375 21.297 18.375 21.0649V14.9399Z" fill="black"/>
<path d="M16.625 6.18993C16.627 4.71823 16.0971 3.29539 15.1328 2.18359C17.085 2.69689 18.8658 3.71948 20.2931 5.1468C21.7204 6.57411 22.743 8.35492 23.2563 10.3071C22.1445 9.34283 20.7217 8.81288 19.25 8.81493H17.0625C16.9464 8.81493 16.8352 8.76883 16.7531 8.68679C16.6711 8.60474 16.625 8.49346 16.625 8.37743V6.18993Z" fill="black"/>
</svg>
