<svg width="29" height="29" viewBox="0 0 29 29" fill="none" xmlns="http://www.w3.org/2000/svg">
<path fill-rule="evenodd" clip-rule="evenodd" d="M14.667 2.68994C8.38449 2.68994 3.29199 7.78244 3.29199 14.0649C3.29199 20.3474 8.38449 25.4399 14.667 25.4399C20.9495 25.4399 26.042 20.3474 26.042 14.0649C26.042 7.78244 20.9495 2.68994 14.667 2.68994ZM10.6385 5.32077C9.1026 6.02875 7.78037 7.12891 6.80495 8.51048C5.82952 9.89205 5.23534 11.5062 5.08224 13.1905C4.92914 14.8748 5.22253 16.5696 5.93285 18.1044C6.64318 19.6392 7.74537 20.9598 9.12843 21.9331C10.5115 22.9064 12.1266 23.4981 13.8111 23.6486C15.4956 23.7991 17.19 23.5032 18.7237 22.7905C20.2574 22.0778 21.5763 20.9736 22.5475 19.5891C23.5187 18.2045 24.1079 16.5885 24.2558 14.9038L23.7192 14.3671C23.5193 14.1672 23.3531 13.9363 23.2268 13.6834L21.9668 11.1634C21.9325 11.095 21.8825 11.0358 21.8208 10.9905C21.7591 10.9453 21.6875 10.9153 21.612 10.9031C21.5365 10.8909 21.4591 10.8968 21.3863 10.9204C21.3135 10.944 21.2474 10.9845 21.1933 11.0386C21.0716 11.1602 20.9196 11.247 20.753 11.2901C20.5865 11.3332 20.4114 11.3309 20.246 11.2836L18.7608 10.8601C18.5232 10.7933 18.2696 10.8133 18.0454 10.9166C17.8212 11.0199 17.6411 11.1997 17.5375 11.4237C17.4338 11.6477 17.4134 11.9013 17.4798 12.139C17.5462 12.3768 17.6951 12.5831 17.8998 12.7209L18.5847 13.1759C19.273 13.6368 19.371 14.6109 18.7853 15.1966L18.552 15.4299C18.3058 15.6773 18.167 16.0109 18.167 16.3586V16.8369C18.167 17.3141 18.0387 17.7808 17.7937 18.1879L16.2595 20.7441C16.0408 21.1089 15.7313 21.4107 15.3613 21.6203C14.9912 21.8299 14.5731 21.94 14.1478 21.9399C13.8214 21.9399 13.5083 21.8103 13.2775 21.5794C13.0467 21.3486 12.917 21.0355 12.917 20.7091V19.3418C12.917 18.2684 12.2637 17.3036 11.2673 16.9046L10.5043 16.6001C9.94812 16.3777 9.4847 15.9718 9.19099 15.4498C8.89728 14.9277 8.79095 14.3209 8.88966 13.7301L8.89783 13.6811C8.95206 13.3566 9.06683 13.0451 9.23616 12.7629L9.34116 12.5879C9.61978 12.124 10.035 11.7575 10.53 11.5386C11.0249 11.3197 11.5755 11.2592 12.1062 11.3653L13.4805 11.6406C13.8039 11.7051 14.1398 11.6455 14.4212 11.4736C14.7027 11.3018 14.9091 11.0303 14.9995 10.7131L15.2422 9.86144C15.3262 9.56721 15.3048 9.25286 15.1817 8.97273C15.0586 8.69259 14.8414 8.46428 14.5678 8.32727L13.792 7.93994L13.6858 8.04611C13.4421 8.28986 13.1527 8.48322 12.8342 8.61513C12.5157 8.74705 12.1744 8.81494 11.8297 8.81494H11.6197C11.3292 8.81494 11.0515 8.93161 10.8473 9.13461C10.6602 9.32342 10.4104 9.43705 10.1451 9.454C9.8798 9.47095 9.61751 9.39002 9.4079 9.22656C9.19828 9.06309 9.05588 8.82843 9.00768 8.56702C8.95947 8.3056 9.0088 8.03559 9.14633 7.80811L10.6385 5.32077Z" fill="black"/>
</svg>
